<svg width="20" height="20" viewBox="0 0 20 20" fill="none" xmlns="http://www.w3.org/2000/svg">
<path d="M10 1C8.21997 1 6.47991 1.52784 4.99987 2.51677C3.51983 3.50571 2.36628 4.91131 1.68509 6.55585C1.0039 8.20038 0.82567 10.01 1.17294 11.7558C1.5202 13.5016 2.37737 15.1053 3.63604 16.364C4.89471 17.6226 6.49836 18.4798 8.24419 18.8271C9.99002 19.1743 11.7996 18.9961 13.4442 18.3149C15.0887 17.6337 16.4943 16.4802 17.4832 15.0001C18.4722 13.5201 19 11.78 19 10C18.9975 7.61382 18.0485 5.3261 16.3612 3.63882C14.6739 1.95154 12.3862 1.00252 10 1ZM10 17.6154C8.49382 17.6154 7.02146 17.1687 5.76912 16.332C4.51678 15.4952 3.5407 14.3058 2.96431 12.9143C2.38792 11.5227 2.23711 9.99155 2.53095 8.51431C2.82479 7.03707 3.55008 5.68014 4.61511 4.61511C5.68014 3.55008 7.03708 2.82478 8.51431 2.53094C9.99155 2.2371 11.5228 2.38791 12.9143 2.9643C14.3058 3.54069 15.4952 4.51677 16.332 5.76912C17.1688 7.02146 17.6154 8.49382 17.6154 10C17.6131 12.019 16.81 13.9547 15.3824 15.3824C13.9547 16.81 12.019 17.6131 10 17.6154ZM9.30769 10.6923V5.84615C9.30769 5.66254 9.38063 5.48645 9.51047 5.35662C9.6403 5.22678 9.81639 5.15385 10 5.15385C10.1836 5.15385 10.3597 5.22678 10.4895 5.35662C10.6194 5.48645 10.6923 5.66254 10.6923 5.84615V10.6923C10.6923 10.8759 10.6194 11.052 10.4895 11.1818C10.3597 11.3117 10.1836 11.3846 10 11.3846C9.81639 11.3846 9.6403 11.3117 9.51047 11.1818C9.38063 11.052 9.30769 10.8759 9.30769 10.6923ZM11.0385 13.8077C11.0385 14.0131 10.9776 14.2139 10.8635 14.3846C10.7493 14.5554 10.5872 14.6885 10.3974 14.7671C10.2076 14.8457 9.99885 14.8663 9.79741 14.8262C9.59597 14.7861 9.41093 14.6872 9.2657 14.542C9.12047 14.3968 9.02156 14.2117 8.98149 14.0103C8.94142 13.8088 8.96199 13.6 9.04059 13.4103C9.11919 13.2205 9.25229 13.0583 9.42306 12.9442C9.59384 12.8301 9.79461 12.7692 10 12.7692C10.2754 12.7692 10.5396 12.8786 10.7343 13.0734C10.9291 13.2681 11.0385 13.5323 11.0385 13.8077Z" fill="#F1A058"/>
</svg>
