<svg width="19" height="13" viewBox="0 0 19 13" fill="none" xmlns="http://www.w3.org/2000/svg">
<path d="M10.5989 3.5C10.5989 2.94772 11.0466 2.5 11.5989 2.5H12.5989C13.1512 2.5 13.5989 2.94772 13.5989 3.5V11.5C13.5989 12.0523 13.1512 12.5 12.5989 12.5H11.5989C11.0466 12.5 10.5989 12.0523 10.5989 11.5V3.5Z" fill="#1C1C1C"/>
<path d="M15.5989 1.5C15.5989 0.947715 16.0466 0.5 16.5989 0.5H17.5989C18.1512 0.5 18.5989 0.947715 18.5989 1.5V11.5C18.5989 12.0523 18.1512 12.5 17.5989 12.5H16.5989C16.0466 12.5 15.5989 12.0523 15.5989 11.5V1.5Z" fill="#1C1C1C"/>
<path d="M5.59888 7C5.59888 6.44772 6.04659 6 6.59888 6H7.59888C8.15116 6 8.59888 6.44772 8.59888 7V11.5C8.59888 12.0523 8.15116 12.5 7.59888 12.5H6.59888C6.04659 12.5 5.59888 12.0523 5.59888 11.5V7Z" fill="#1C1C1C"/>
<path d="M0.598877 9.5C0.598877 8.94772 1.04659 8.5 1.59888 8.5H2.59888C3.15116 8.5 3.59888 8.94772 3.59888 9.5V11.5C3.59888 12.0523 3.15116 12.5 2.59888 12.5H1.59888C1.04659 12.5 0.598877 12.0523 0.598877 11.5V9.5Z" fill="#1C1C1C"/>
</svg>
