<svg width="33" height="32" viewBox="0 0 33 32" fill="none" xmlns="http://www.w3.org/2000/svg">
<path d="M16.5 3.5C13.1859 3.50364 10.0086 4.82177 7.66518 7.16518C5.32177 9.5086 4.00364 12.6859 4 16V26.5C4 27.0304 4.21071 27.5391 4.58579 27.9142C4.96086 28.2893 5.46957 28.5 6 28.5H16.5C19.8152 28.5 22.9946 27.183 25.3388 24.8388C27.683 22.4946 29 19.3152 29 16C29 12.6848 27.683 9.50537 25.3388 7.16117C22.9946 4.81696 19.8152 3.5 16.5 3.5ZM16.5 26.5H6V16C6 13.9233 6.61581 11.8932 7.76957 10.1665C8.92332 8.4398 10.5632 7.09399 12.4818 6.29926C14.4004 5.50454 16.5116 5.29661 18.5484 5.70175C20.5852 6.1069 22.4562 7.10693 23.9246 8.57538C25.3931 10.0438 26.3931 11.9148 26.7982 13.9516C27.2034 15.9884 26.9955 18.0996 26.2007 20.0182C25.406 21.9368 24.0602 23.5767 22.3335 24.7304C20.6068 25.8842 18.5767 26.5 16.5 26.5ZM18 16.5C18 16.7967 17.912 17.0867 17.7472 17.3334C17.5824 17.58 17.3481 17.7723 17.074 17.8858C16.7999 17.9993 16.4983 18.0291 16.2074 17.9712C15.9164 17.9133 15.6491 17.7704 15.4393 17.5607C15.2296 17.3509 15.0867 17.0836 15.0288 16.7926C14.9709 16.5017 15.0006 16.2001 15.1142 15.926C15.2277 15.6519 15.42 15.4176 15.6666 15.2528C15.9133 15.088 16.2033 15 16.5 15C16.8978 15 17.2794 15.158 17.5607 15.4393C17.842 15.7206 18 16.1022 18 16.5ZM12.5 16.5C12.5 16.7967 12.412 17.0867 12.2472 17.3334C12.0824 17.58 11.8481 17.7723 11.574 17.8858C11.2999 17.9993 10.9983 18.0291 10.7074 17.9712C10.4164 17.9133 10.1491 17.7704 9.93934 17.5607C9.72956 17.3509 9.5867 17.0836 9.52882 16.7926C9.47094 16.5017 9.50065 16.2001 9.61418 15.926C9.72771 15.6519 9.91997 15.4176 10.1666 15.2528C10.4133 15.088 10.7033 15 11 15C11.3978 15 11.7794 15.158 12.0607 15.4393C12.342 15.7206 12.5 16.1022 12.5 16.5ZM23.5 16.5C23.5 16.7967 23.412 17.0867 23.2472 17.3334C23.0824 17.58 22.8481 17.7723 22.574 17.8858C22.2999 17.9993 21.9983 18.0291 21.7074 17.9712C21.4164 17.9133 21.1491 17.7704 20.9393 17.5607C20.7296 17.3509 20.5867 17.0836 20.5288 16.7926C20.4709 16.5017 20.5007 16.2001 20.6142 15.926C20.7277 15.6519 20.92 15.4176 21.1666 15.2528C21.4133 15.088 21.7033 15 22 15C22.3978 15 22.7794 15.158 23.0607 15.4393C23.342 15.7206 23.5 16.1022 23.5 16.5Z" fill="#121212"/>
</svg>
