<svg width="32" height="32" viewBox="0 0 32 32" fill="none" xmlns="http://www.w3.org/2000/svg">
<path d="M5 13.4995V27.4992L18.5 27.1242C18.5 27.1242 27.1307 24.6242 27.5 16.4996C27.8693 8.37496 21.5 4.49951 14.5 4.49951C7.5 4.49951 5 13.4995 5 13.4995Z" fill="#F3AF5C"/>
<path d="M16 3.5C12.6859 3.50364 9.5086 4.82177 7.16518 7.16518C4.82177 9.5086 3.50364 12.6859 3.5 16V26.5C3.5 27.0304 3.71071 27.5391 4.08579 27.9142C4.46086 28.2893 4.96957 28.5 5.5 28.5H16C19.3152 28.5 22.4946 27.183 24.8388 24.8388C27.183 22.4946 28.5 19.3152 28.5 16C28.5 12.6848 27.183 9.50537 24.8388 7.16117C22.4946 4.81696 19.3152 3.5 16 3.5ZM16 26.5H5.5V16C5.5 13.9233 6.11581 11.8932 7.26957 10.1665C8.42332 8.4398 10.0632 7.09399 11.9818 6.29926C13.9004 5.50454 16.0116 5.29661 18.0484 5.70175C20.0852 6.1069 21.9562 7.10693 23.4246 8.57538C24.8931 10.0438 25.8931 11.9148 26.2982 13.9516C26.7034 15.9884 26.4955 18.0996 25.7007 20.0182C24.906 21.9368 23.5602 23.5767 21.8335 24.7304C20.1068 25.8842 18.0767 26.5 16 26.5ZM17.5 16.5C17.5 16.7967 17.412 17.0867 17.2472 17.3334C17.0824 17.58 16.8481 17.7723 16.574 17.8858C16.2999 17.9993 15.9983 18.0291 15.7074 17.9712C15.4164 17.9133 15.1491 17.7704 14.9393 17.5607C14.7296 17.3509 14.5867 17.0836 14.5288 16.7926C14.4709 16.5017 14.5006 16.2001 14.6142 15.926C14.7277 15.6519 14.92 15.4176 15.1666 15.2528C15.4133 15.088 15.7033 15 16 15C16.3978 15 16.7794 15.158 17.0607 15.4393C17.342 15.7206 17.5 16.1022 17.5 16.5ZM12 16.5C12 16.7967 11.912 17.0867 11.7472 17.3334C11.5824 17.58 11.3481 17.7723 11.074 17.8858C10.7999 17.9993 10.4983 18.0291 10.2074 17.9712C9.91639 17.9133 9.64912 17.7704 9.43934 17.5607C9.22956 17.3509 9.0867 17.0836 9.02882 16.7926C8.97094 16.5017 9.00065 16.2001 9.11418 15.926C9.22771 15.6519 9.41997 15.4176 9.66665 15.2528C9.91332 15.088 10.2033 15 10.5 15C10.8978 15 11.2794 15.158 11.5607 15.4393C11.842 15.7206 12 16.1022 12 16.5ZM23 16.5C23 16.7967 22.912 17.0867 22.7472 17.3334C22.5824 17.58 22.3481 17.7723 22.074 17.8858C21.7999 17.9993 21.4983 18.0291 21.2074 17.9712C20.9164 17.9133 20.6491 17.7704 20.4393 17.5607C20.2296 17.3509 20.0867 17.0836 20.0288 16.7926C19.9709 16.5017 20.0007 16.2001 20.1142 15.926C20.2277 15.6519 20.42 15.4176 20.6666 15.2528C20.9133 15.088 21.2033 15 21.5 15C21.8978 15 22.2794 15.158 22.5607 15.4393C22.842 15.7206 23 16.1022 23 16.5Z" fill="#121212"/>
</svg>
