<svg width="33" height="32" viewBox="0 0 33 32" fill="none" xmlns="http://www.w3.org/2000/svg">
<path d="M29.2275 26C29.2275 26.2652 29.1222 26.5196 28.9346 26.7071C28.7471 26.8946 28.4928 27 28.2275 27H4.22754C3.96232 27 3.70797 26.8946 3.52043 26.7071C3.3329 26.5196 3.22754 26.2652 3.22754 26V6C3.22754 5.73478 3.3329 5.48043 3.52043 5.29289C3.70797 5.10536 3.96232 5 4.22754 5C4.49276 5 4.74711 5.10536 4.93465 5.29289C5.12218 5.48043 5.22754 5.73478 5.22754 6V17.7962L11.5688 12.25C11.7413 12.0989 11.9606 12.0118 12.1897 12.0031C12.4189 11.9945 12.6441 12.0649 12.8275 12.2025L20.1788 17.7162L27.5688 11.25C27.6657 11.1541 27.7812 11.079 27.9081 11.0293C28.0351 10.9797 28.1709 10.9565 28.3072 10.9613C28.4434 10.9661 28.5773 10.9986 28.7005 11.057C28.8237 11.1154 28.9337 11.1983 29.0236 11.3008C29.1136 11.4032 29.1817 11.523 29.2237 11.6527C29.2657 11.7824 29.2807 11.9193 29.2678 12.055C29.255 12.1908 29.2145 12.3224 29.1489 12.4419C29.0833 12.5615 28.9939 12.6663 28.8863 12.75L20.8863 19.75C20.7137 19.9011 20.4945 19.9882 20.2653 19.9969C20.0362 20.0055 19.811 19.9351 19.6275 19.7975L12.2763 14.2863L5.22754 20.4538V25H28.2275C28.4928 25 28.7471 25.1054 28.9346 25.2929C29.1222 25.4804 29.2275 25.7348 29.2275 26Z" fill="#121212"/>
</svg>
