<svg width="33" height="32" viewBox="0 0 33 32" fill="none" xmlns="http://www.w3.org/2000/svg">
<path d="M28.0272 10.608C29.3602 13.3959 29.6133 16.5788 28.7376 19.5424C27.8618 22.5059 25.9194 25.04 23.2851 26.6556C20.6508 28.2712 17.5115 28.8537 14.4729 28.2908C11.4344 27.7279 8.71211 26.0594 6.83143 23.6073C4.95076 21.1553 4.04503 18.0935 4.28906 15.0129C4.53308 11.9323 5.90957 9.05132 8.15284 6.92594C10.3961 4.80056 13.3472 3.58146 16.4364 3.50394C19.5257 3.42641 22.5342 4.49596 24.8812 6.50615L27.6034 3.78281C27.7836 3.60256 28.0281 3.50129 28.283 3.50129C28.5379 3.50129 28.7824 3.60256 28.9626 3.78281C29.1429 3.96306 29.2441 4.20753 29.2441 4.46244C29.2441 4.71735 29.1429 4.96183 28.9626 5.14208L17.4353 16.6694C17.255 16.8497 17.0105 16.951 16.7556 16.951C16.5007 16.951 16.2562 16.8497 16.076 16.6694C15.8957 16.4892 15.7945 16.2447 15.7945 15.9898C15.7945 15.7349 15.8957 15.4904 16.076 15.3102L19.4045 11.9816C18.5024 11.385 17.4254 11.1104 16.3478 11.202C15.2702 11.2937 14.2551 11.7464 13.4667 12.4868C12.6784 13.2272 12.1631 14.212 12.0041 15.2818C11.8451 16.3516 12.0518 17.4437 12.5908 18.3813C13.1297 19.319 13.9694 20.0473 14.9738 20.4484C15.9781 20.8495 17.0885 20.8998 18.1251 20.5913C19.1616 20.2828 20.0638 19.6335 20.6854 18.7485C21.307 17.8635 21.6118 16.7946 21.5503 15.7148C21.5432 15.5887 21.561 15.4624 21.6027 15.3431C21.6445 15.2238 21.7093 15.114 21.7934 15.0197C21.8776 14.9255 21.9795 14.8488 22.0934 14.794C22.2072 14.7391 22.3307 14.7073 22.4569 14.7002C22.7116 14.6858 22.9617 14.7733 23.152 14.9433C23.2462 15.0275 23.3229 15.1294 23.3777 15.2433C23.4325 15.3571 23.4644 15.4806 23.4715 15.6068C23.5591 17.1351 23.1226 18.6475 22.2341 19.8941C21.3457 21.1407 20.0584 22.0469 18.5852 22.4628C17.112 22.8787 15.5409 22.7795 14.1317 22.1816C12.7225 21.5836 11.5595 20.5227 10.8349 19.1743C10.1103 17.8258 9.86754 16.2704 10.1467 14.7653C10.4258 13.2601 11.2102 11.8953 12.3701 10.8963C13.53 9.89733 14.9961 9.32403 16.526 9.27116C18.0559 9.2183 19.5581 9.68903 20.7842 10.6056L23.5159 7.87382C21.514 6.21171 18.9686 5.34784 16.3686 5.44812C13.7685 5.5484 11.2972 6.60577 9.42925 8.41713C7.5613 10.2285 6.42844 12.6661 6.24825 15.2619C6.06806 17.8576 6.85324 20.4284 8.45299 22.4804C10.0527 24.5325 12.3543 25.9212 14.9155 26.3798C17.4768 26.8384 20.1171 26.3345 22.3295 24.9649C24.5419 23.5954 26.1702 21.4567 26.9019 18.9597C27.6335 16.4627 27.4168 13.7834 26.2933 11.4365C26.1835 11.2066 26.1694 10.9424 26.2543 10.7021C26.3392 10.4619 26.5161 10.2651 26.746 10.1553C26.9759 10.0454 27.2401 10.0314 27.4804 10.1163C27.7206 10.2012 27.9174 10.378 28.0272 10.608Z" fill="#121212"/>
</svg>
