<svg width="23" height="25" viewBox="0 0 23 25" fill="none" xmlns="http://www.w3.org/2000/svg">
<path fill-rule="evenodd" clip-rule="evenodd" d="M7.61994 3.05101C10.9271 -0.114658 16.2744 -0.114658 19.5816 3.05101C22.9095 6.23657 22.9095 11.4173 19.5816 14.6029L10.6492 23.1531C8.30031 25.4015 4.50661 25.4015 2.1577 23.1531C-0.211988 20.8848 -0.211989 17.1912 2.1577 14.9229L10.9615 6.49569C12.3522 5.16454 14.5923 5.16454 15.9829 6.49569C17.3944 7.84675 17.3944 10.0532 15.9829 11.4042L7.11482 19.8929C6.77854 20.2148 6.24498 20.2031 5.92309 19.8669C5.6012 19.5306 5.61286 18.997 5.94914 18.6751L14.8172 10.1864C15.5352 9.49915 15.5352 8.40076 14.8172 7.71348C14.0785 7.00629 12.866 7.00629 12.1272 7.71347L3.32338 16.1407C1.64714 17.7452 1.64714 20.3308 3.32338 21.9353C5.02042 23.5597 7.78649 23.5597 9.48353 21.9353L18.4159 13.3851C21.0504 10.8633 21.0504 6.79057 18.4159 4.26879C15.7606 1.7271 11.4409 1.7271 8.78562 4.26879L1.58832 11.1582C1.25204 11.4801 0.718484 11.4684 0.396591 11.1321C0.0746969 10.7958 0.0863599 10.2623 0.422641 9.94038L7.61994 3.05101Z" fill="#02040F"/>
</svg>
