<svg width="25" height="25" viewBox="0 0 25 25" fill="none" xmlns="http://www.w3.org/2000/svg">
<path fill-rule="evenodd" clip-rule="evenodd" d="M12.0813 2.36252C6.34001 2.36252 1.68576 7.01677 1.68576 12.7581C1.68576 18.4994 6.34001 23.1536 12.0813 23.1536C17.8226 23.1536 22.4769 18.4994 22.4769 12.7581C22.4769 7.01677 17.8226 2.36252 12.0813 2.36252ZM0 12.7581C0 6.08574 5.40899 0.676758 12.0813 0.676758C18.7536 0.676758 24.1626 6.08574 24.1626 12.7581C24.1626 19.4304 18.7536 24.8394 12.0813 24.8394C5.40899 24.8394 0 19.4304 0 12.7581ZM8.03264 16.7515C8.30984 16.3775 8.83773 16.2991 9.2117 16.5763C10.0302 17.183 11.0183 17.5344 12.0813 17.5344C13.1444 17.5344 14.1324 17.183 14.9509 16.5763C15.3249 16.2991 15.8528 16.3775 16.13 16.7515C16.4072 17.1255 16.3287 17.6534 15.9548 17.9306C14.8619 18.7406 13.5254 19.2202 12.0813 19.2202C10.6372 19.2202 9.30069 18.7406 8.20786 17.9306C7.83388 17.6534 7.75543 17.1255 8.03264 16.7515Z" fill="#02040F"/>
<path d="M16.5767 11.0723C16.5767 12.0033 16.0735 12.7581 15.4528 12.7581C14.8322 12.7581 14.329 12.0033 14.329 11.0723C14.329 10.1413 14.8322 9.38654 15.4528 9.38654C16.0735 9.38654 16.5767 10.1413 16.5767 11.0723Z" fill="#02040F"/>
<path d="M9.83362 11.0723C9.83362 12.0033 9.33046 12.7581 8.70978 12.7581C8.0891 12.7581 7.58594 12.0033 7.58594 11.0723C7.58594 10.1413 8.0891 9.38654 8.70978 9.38654C9.33046 9.38654 9.83362 10.1413 9.83362 11.0723Z" fill="#02040F"/>
</svg>
