<svg width="25" height="23" viewBox="0 0 25 23" fill="none" xmlns="http://www.w3.org/2000/svg">
<path fill-rule="evenodd" clip-rule="evenodd" d="M9.38543 2.71396L16.9889 6.13486C19.3002 7.17473 21.1193 7.99312 22.3533 8.76812C23.5721 9.5336 24.5246 10.4412 24.5246 11.7581C24.5246 13.075 23.5721 13.9826 22.3533 14.7481C21.1193 15.5231 19.3002 16.3415 16.9889 17.3813L9.38542 20.8022C7.97272 21.4378 6.87372 21.9323 6.01559 22.2532C5.17586 22.5672 4.42537 22.7734 3.75806 22.7008C2.13948 22.5248 0.746702 21.4149 0.409618 19.8479C0.266751 19.1838 0.466521 18.4409 0.753541 17.6691C1.05072 16.87 1.52305 15.8439 2.12479 14.5368L2.14101 14.5016C2.6113 13.48 2.79228 13.0768 2.88463 12.6747C3.02355 12.0697 3.02355 11.4465 2.88463 10.8415C2.79228 10.4394 2.6113 10.0362 2.14101 9.01463L2.12478 8.97939C1.52305 7.67225 1.05072 6.64621 0.753541 5.8471C0.46652 5.07531 0.266751 4.33237 0.409619 3.66824C0.746704 2.10127 2.13948 0.991359 3.75806 0.815349C4.42537 0.742783 5.17586 0.949005 6.01559 1.26302C6.87372 1.58391 7.97272 2.07837 9.38543 2.71396ZM5.42514 2.84199C4.60004 2.53345 4.17853 2.46533 3.9403 2.49123C2.94225 2.59976 2.22148 3.26132 2.05768 4.02277C2.0272 4.16445 2.04849 4.49289 2.33358 5.2595C2.60585 5.99163 3.05088 6.95977 3.67231 8.30971C3.68593 8.33929 3.69938 8.36851 3.71268 8.39739C4.12964 9.30285 4.39155 9.87161 4.52763 10.4643C4.72356 11.3175 4.72356 12.1987 4.52763 13.0519C4.39155 13.6446 4.12964 14.2133 3.71268 15.1188C3.69938 15.1477 3.68593 15.1769 3.67231 15.2065C3.05088 16.5564 2.60585 17.5246 2.33358 18.2567C2.04849 19.0233 2.0272 19.3517 2.05768 19.4934C2.22148 20.2549 2.94225 20.9164 3.9403 21.025C4.17853 21.0509 4.60004 20.9827 5.42514 20.6742C6.22567 20.3748 7.2747 19.9033 8.7242 19.2512L16.2291 15.8747C18.6232 14.7975 20.3339 14.0257 21.4567 13.3205C22.6068 12.5982 22.8388 12.129 22.8388 11.7581C22.8388 11.3872 22.6068 10.918 21.4567 10.1957C20.3339 9.49053 18.6232 8.71867 16.2291 7.64153L8.72421 4.26499C7.27471 3.61285 6.22567 3.14135 5.42514 2.84199Z" fill="#EA8850"/>
</svg>
