<svg width="33" height="33" viewBox="0 0 33 33" fill="none" xmlns="http://www.w3.org/2000/svg">
<path d="M4.5 15.2325C4.5 15.9397 4.78095 16.618 5.28105 17.1181C5.78115 17.6182 6.45942 17.8992 7.16667 17.8992C7.87391 17.8992 8.55219 17.6182 9.05229 17.1181C9.55238 16.618 9.83333 15.9397 9.83333 15.2325C9.83333 14.5252 9.55238 13.847 9.05229 13.3469C8.55219 12.8468 7.87391 12.5658 7.16667 12.5658C6.45942 12.5658 5.78115 12.8468 5.28105 13.3469C4.78095 13.847 4.5 14.5252 4.5 15.2325Z" stroke="white" stroke-width="1.33333" stroke-linecap="round" stroke-linejoin="round"/>
<path d="M13.8335 17.8992H28.5002V15.2325C28.5002 14.1716 28.0787 13.1542 27.3286 12.4041C26.5784 11.6539 25.561 11.2325 24.5002 11.2325H13.8335V17.8992Z" stroke="white" stroke-width="1.33333" stroke-linecap="round" stroke-linejoin="round"/>
<path d="M4.5 21.8992H28.5" stroke="white" stroke-width="1.33333" stroke-linecap="round" stroke-linejoin="round"/>
</svg>
