<svg width="32" height="31" viewBox="0 0 32 31" fill="none" xmlns="http://www.w3.org/2000/svg">
<path d="M26 4.50012H23V3.50012C23 3.23491 22.8946 2.98055 22.7071 2.79302C22.5196 2.60548 22.2652 2.50012 22 2.50012C21.7348 2.50012 21.4804 2.60548 21.2929 2.79302C21.1054 2.98055 21 3.23491 21 3.50012V4.50012H11V3.50012C11 3.23491 10.8946 2.98055 10.7071 2.79302C10.5196 2.60548 10.2652 2.50012 10 2.50012C9.73478 2.50012 9.48043 2.60548 9.29289 2.79302C9.10536 2.98055 9 3.23491 9 3.50012V4.50012H6C5.46957 4.50012 4.96086 4.71084 4.58579 5.08591C4.21071 5.46098 4 5.96969 4 6.50012V26.5001C4 27.0306 4.21071 27.5393 4.58579 27.9143C4.96086 28.2894 5.46957 28.5001 6 28.5001H26C26.5304 28.5001 27.0391 28.2894 27.4142 27.9143C27.7893 27.5393 28 27.0306 28 26.5001V6.50012C28 5.96969 27.7893 5.46098 27.4142 5.08591C27.0391 4.71084 26.5304 4.50012 26 4.50012ZM9 6.50012V7.50012C9 7.76534 9.10536 8.01969 9.29289 8.20723C9.48043 8.39476 9.73478 8.50012 10 8.50012C10.2652 8.50012 10.5196 8.39476 10.7071 8.20723C10.8946 8.01969 11 7.76534 11 7.50012V6.50012H21V7.50012C21 7.76534 21.1054 8.01969 21.2929 8.20723C21.4804 8.39476 21.7348 8.50012 22 8.50012C22.2652 8.50012 22.5196 8.39476 22.7071 8.20723C22.8946 8.01969 23 7.76534 23 7.50012V6.50012H26V10.5001H6V6.50012H9ZM26 26.5001H6V12.5001H26V26.5001ZM17.5 17.0001C17.5 17.2968 17.412 17.5868 17.2472 17.8335C17.0824 18.0802 16.8481 18.2724 16.574 18.3859C16.2999 18.4995 15.9983 18.5292 15.7074 18.4713C15.4164 18.4134 15.1491 18.2706 14.9393 18.0608C14.7296 17.851 14.5867 17.5837 14.5288 17.2928C14.4709 17.0018 14.5006 16.7002 14.6142 16.4261C14.7277 16.152 14.92 15.9177 15.1666 15.7529C15.4133 15.5881 15.7033 15.5001 16 15.5001C16.3978 15.5001 16.7794 15.6582 17.0607 15.9395C17.342 16.2208 17.5 16.6023 17.5 17.0001ZM23 17.0001C23 17.2968 22.912 17.5868 22.7472 17.8335C22.5824 18.0802 22.3481 18.2724 22.074 18.3859C21.7999 18.4995 21.4983 18.5292 21.2074 18.4713C20.9164 18.4134 20.6491 18.2706 20.4393 18.0608C20.2296 17.851 20.0867 17.5837 20.0288 17.2928C19.9709 17.0018 20.0007 16.7002 20.1142 16.4261C20.2277 16.152 20.42 15.9177 20.6666 15.7529C20.9133 15.5881 21.2033 15.5001 21.5 15.5001C21.8978 15.5001 22.2794 15.6582 22.5607 15.9395C22.842 16.2208 23 16.6023 23 17.0001ZM12 22.0001C12 22.2968 11.912 22.5868 11.7472 22.8335C11.5824 23.0802 11.3481 23.2724 11.074 23.3859C10.7999 23.4995 10.4983 23.5292 10.2074 23.4713C9.91639 23.4134 9.64912 23.2706 9.43934 23.0608C9.22956 22.851 9.0867 22.5837 9.02882 22.2928C8.97094 22.0018 9.00065 21.7002 9.11418 21.4261C9.22771 21.152 9.41997 20.9177 9.66665 20.7529C9.91332 20.5881 10.2033 20.5001 10.5 20.5001C10.8978 20.5001 11.2794 20.6582 11.5607 20.9395C11.842 21.2208 12 21.6023 12 22.0001ZM17.5 22.0001C17.5 22.2968 17.412 22.5868 17.2472 22.8335C17.0824 23.0802 16.8481 23.2724 16.574 23.3859C16.2999 23.4995 15.9983 23.5292 15.7074 23.4713C15.4164 23.4134 15.1491 23.2706 14.9393 23.0608C14.7296 22.851 14.5867 22.5837 14.5288 22.2928C14.4709 22.0018 14.5006 21.7002 14.6142 21.4261C14.7277 21.152 14.92 20.9177 15.1666 20.7529C15.4133 20.5881 15.7033 20.5001 16 20.5001C16.3978 20.5001 16.7794 20.6582 17.0607 20.9395C17.342 21.2208 17.5 21.6023 17.5 22.0001ZM23 22.0001C23 22.2968 22.912 22.5868 22.7472 22.8335C22.5824 23.0802 22.3481 23.2724 22.074 23.3859C21.7999 23.4995 21.4983 23.5292 21.2074 23.4713C20.9164 23.4134 20.6491 23.2706 20.4393 23.0608C20.2296 22.851 20.0867 22.5837 20.0288 22.2928C19.9709 22.0018 20.0007 21.7002 20.1142 21.4261C20.2277 21.152 20.42 20.9177 20.6666 20.7529C20.9133 20.5881 21.2033 20.5001 21.5 20.5001C21.8978 20.5001 22.2794 20.6582 22.5607 20.9395C22.842 21.2208 23 21.6023 23 22.0001Z" fill="white"/>
</svg>
