<svg width="16" height="17" viewBox="0 0 16 17" fill="none" xmlns="http://www.w3.org/2000/svg">
<path d="M14.6719 5.02203L11.5442 1.89385C11.4402 1.78983 11.3167 1.70731 11.1808 1.65101C11.0449 1.59471 10.8993 1.56573 10.7522 1.56573C10.6051 1.56573 10.4594 1.59471 10.3235 1.65101C10.1876 1.70731 10.0641 1.78983 9.96011 1.89385L1.32831 10.5259C1.22385 10.6295 1.14104 10.7529 1.08468 10.8888C1.02832 11.0247 0.999536 11.1705 1.00001 11.3176V14.4458C1.00001 14.7428 1.11801 15.0277 1.32805 15.2377C1.53809 15.4477 1.82297 15.5657 2.12002 15.5657H5.24836C5.39549 15.5662 5.54125 15.5374 5.67717 15.4811C5.81308 15.4247 5.93644 15.3419 6.04006 15.2374L14.6719 6.60607C14.7759 6.50207 14.8584 6.3786 14.9147 6.2427C14.971 6.1068 15 5.96115 15 5.81405C15 5.66696 14.971 5.5213 14.9147 5.3854C14.8584 5.24951 14.7759 5.12603 14.6719 5.02203ZM5.24836 14.4458H2.12002V11.3176L8.28009 5.15783L11.4084 8.28601L5.24836 14.4458ZM12.2001 7.49364L9.0718 4.36616L10.7518 2.68622L13.8802 5.8137L12.2001 7.49364Z" fill="#F3AF5C"/>
</svg>
