<svg width="33" height="33" viewBox="0 0 33 33" fill="none" xmlns="http://www.w3.org/2000/svg">
<path d="M3.1665 16.5658H4.49984" stroke="white" stroke-width="1.33333" stroke-linecap="round" stroke-linejoin="round"/>
<path d="M8.5 11.2325H5.83333C5.47971 11.2325 5.14057 11.373 4.89052 11.623C4.64048 11.8731 4.5 12.2122 4.5 12.5658V20.5658C4.5 20.9194 4.64048 21.2586 4.89052 21.5086C5.14057 21.7587 5.47971 21.8991 5.83333 21.8991H8.5" stroke="white" stroke-width="1.33333" stroke-linecap="round" stroke-linejoin="round"/>
<path d="M8.5 9.89916V23.2325C8.5 23.5861 8.64048 23.9253 8.89052 24.1753C9.14057 24.4254 9.47971 24.5658 9.83333 24.5658H11.1667C11.5203 24.5658 11.8594 24.4254 12.1095 24.1753C12.3595 23.9253 12.5 23.5861 12.5 23.2325V9.89916C12.5 9.54554 12.3595 9.2064 12.1095 8.95635C11.8594 8.7063 11.5203 8.56583 11.1667 8.56583H9.83333C9.47971 8.56583 9.14057 8.7063 8.89052 8.95635C8.64048 9.2064 8.5 9.54554 8.5 9.89916Z" stroke="white" stroke-width="1.33333" stroke-linecap="round" stroke-linejoin="round"/>
<path d="M12.5 16.5658H20.5" stroke="white" stroke-width="1.33333" stroke-linecap="round" stroke-linejoin="round"/>
<path d="M20.5 9.89916V23.2325C20.5 23.5861 20.6405 23.9253 20.8905 24.1753C21.1406 24.4254 21.4797 24.5658 21.8333 24.5658H23.1667C23.5203 24.5658 23.8594 24.4254 24.1095 24.1753C24.3595 23.9253 24.5 23.5861 24.5 23.2325V9.89916C24.5 9.54554 24.3595 9.2064 24.1095 8.95635C23.8594 8.7063 23.5203 8.56583 23.1667 8.56583H21.8333C21.4797 8.56583 21.1406 8.7063 20.8905 8.95635C20.6405 9.2064 20.5 9.54554 20.5 9.89916Z" stroke="white" stroke-width="1.33333" stroke-linecap="round" stroke-linejoin="round"/>
<path d="M24.5 11.2325H27.1667C27.5203 11.2325 27.8594 11.373 28.1095 11.623C28.3595 11.8731 28.5 12.2122 28.5 12.5658V20.5658C28.5 20.9194 28.3595 21.2586 28.1095 21.5086C27.8594 21.7587 27.5203 21.8991 27.1667 21.8991H24.5" stroke="white" stroke-width="1.33333" stroke-linecap="round" stroke-linejoin="round"/>
<path d="M29.8333 16.5658H28.5" stroke="white" stroke-width="1.33333" stroke-linecap="round" stroke-linejoin="round"/>
</svg>
