<svg width="33" height="33" viewBox="0 0 33 33" fill="none" xmlns="http://www.w3.org/2000/svg">
<path d="M5.83333 8.56583H13.068C13.3008 8.56599 13.5296 8.62713 13.7315 8.74315C13.9333 8.85918 14.1013 9.02605 14.2187 9.22716L15.6373 11.6578C15.9099 12.1253 16.2745 12.5325 16.709 12.855C17.1435 13.1774 17.639 13.4084 18.1653 13.5338L24.4013 15.0192C25.5682 15.2968 26.6075 15.9598 27.3512 16.9009C28.0949 17.842 28.4996 19.0063 28.5 20.2058V23.2325C28.5 23.5861 28.3595 23.9253 28.1095 24.1753C27.8594 24.4254 27.5203 24.5658 27.1667 24.5658H5.83333C5.47971 24.5658 5.14057 24.4254 4.89052 24.1753C4.64048 23.9253 4.5 23.5861 4.5 23.2325V9.89916C4.5 9.54554 4.64048 9.2064 4.89052 8.95635C5.14057 8.7063 5.47971 8.56583 5.83333 8.56583Z" stroke="white" stroke-width="1.33333" stroke-linecap="round" stroke-linejoin="round"/>
<path d="M19.1665 17.8992L20.4998 15.2325" stroke="white" stroke-width="1.33333" stroke-linecap="round" stroke-linejoin="round"/>
<path d="M11.1667 24.5658V23.2325C11.1667 21.818 10.6048 20.4614 9.60457 19.4613C8.60438 18.4611 7.24782 17.8992 5.83333 17.8992H4.5" stroke="white" stroke-width="1.33333" stroke-linecap="round" stroke-linejoin="round"/>
<path d="M13.8335 16.5658L15.8335 12.5658" stroke="white" stroke-width="1.33333" stroke-linecap="round" stroke-linejoin="round"/>
</svg>
