<svg width="33" height="33" viewBox="0 0 33 33" fill="none" xmlns="http://www.w3.org/2000/svg">
<path d="M13.8335 7.23248H19.1668V4.56582C19.1668 4.21219 19.0264 3.87306 18.7763 3.62301C18.5263 3.37296 18.1871 3.23248 17.8335 3.23248H15.1668C14.8132 3.23248 14.4741 3.37296 14.224 3.62301C13.974 3.87306 13.8335 4.21219 13.8335 4.56582V7.23248Z" stroke="white" stroke-width="1.33333" stroke-linecap="round" stroke-linejoin="round"/>
<path d="M19.1668 5.23248C19.1668 7.40048 19.8428 9.51515 21.1002 11.2818L21.1668 11.3752C22.4679 13.2027 23.167 15.3904 23.1668 17.6338V25.8992C23.1668 26.6064 22.8859 27.2847 22.3858 27.7848C21.8857 28.2849 21.2074 28.5658 20.5002 28.5658H12.5002C11.7929 28.5658 11.1146 28.2849 10.6145 27.7848C10.1144 27.2847 9.8335 26.6064 9.8335 25.8992V17.6325C9.8335 15.3898 10.5322 13.2032 11.8335 11.3752L11.9002 11.2818C13.1577 9.51535 13.8335 7.40087 13.8335 5.23248" stroke="white" stroke-width="1.33333" stroke-linecap="round" stroke-linejoin="round"/>
<path d="M9.8335 20.3032C10.3668 20.0738 10.8277 19.7037 11.1668 19.2325C11.4697 18.8105 11.8708 18.4686 12.3354 18.2363C12.8 18.004 13.3142 17.8883 13.8335 17.8992C14.3528 17.8883 14.867 18.004 15.3316 18.2363C15.7962 18.4686 16.1973 18.8105 16.5002 19.2325C16.8031 19.6545 17.2041 19.9964 17.6687 20.2287C18.1333 20.461 18.6475 20.5767 19.1668 20.5658C19.6862 20.5767 20.2003 20.461 20.6649 20.2287C21.1295 19.9964 21.5306 19.6545 21.8335 19.2325C22.1722 18.7603 22.6332 18.3892 23.1668 18.1592" stroke="white" stroke-width="1.33333" stroke-linecap="round" stroke-linejoin="round"/>
</svg>
