<svg width="32" height="32" viewBox="0 0 32 32" fill="none" xmlns="http://www.w3.org/2000/svg">
<circle cx="15.2505" cy="6.00049" r="3" fill="#F7CC67"/>
<path d="M28.0003 11.5007C27.5003 9.5007 4.50023 9.73297 4.00023 11.5004C3.50023 13.2679 12.0005 16.5008 12.0005 16.5008C12.0005 16.5008 7.50001 28.2332 9.50049 29.5007C11.501 30.7682 16.0003 21.7331 16.0003 21.7331C16.0003 21.7331 20.5005 30.0005 22.0005 29.0005C23.5005 28.0005 20.5003 16.5007 20.5003 16.5007C20.5003 16.5007 28.5003 13.5007 28.0003 11.5007Z" fill="#F3AF5C"/>
<path d="M19.9986 5.46533C19.9986 4.67421 19.764 3.90085 19.3245 3.24305C18.885 2.58526 18.2603 2.07257 17.5293 1.76982C16.7984 1.46707 15.9942 1.38785 15.2183 1.54219C14.4423 1.69653 13.7296 2.0775 13.1702 2.63691C12.6108 3.19632 12.2298 3.90905 12.0755 4.68497C11.9211 5.4609 12.0003 6.26516 12.3031 6.99607C12.6058 7.72697 13.1185 8.35169 13.7763 8.79121C14.4341 9.23074 15.2075 9.46533 15.9986 9.46533C17.0595 9.46533 18.0769 9.04391 18.827 8.29376C19.5772 7.54362 19.9986 6.5262 19.9986 5.46533ZM15.9986 7.46533C15.6031 7.46533 15.2164 7.34804 14.8875 7.12827C14.5586 6.90851 14.3022 6.59615 14.1509 6.2307C13.9995 5.86525 13.9599 5.46312 14.037 5.07515C14.1142 4.68719 14.3047 4.33083 14.5844 4.05112C14.8641 3.77142 15.2205 3.58093 15.6084 3.50376C15.9964 3.42659 16.3985 3.4662 16.764 3.61757C17.1294 3.76895 17.4418 4.0253 17.6616 4.35419C17.8813 4.68309 17.9986 5.06977 17.9986 5.46533C17.9986 5.99577 17.7879 6.50447 17.4128 6.87955C17.0378 7.25462 16.529 7.46533 15.9986 7.46533ZM28.9361 11.4291C28.8223 10.869 28.5164 10.3663 28.0714 10.0078C27.6263 9.64924 27.0701 9.45738 26.4986 9.46533H5.49861C4.92872 9.46532 4.37592 9.66001 3.93181 10.0172C3.48771 10.3743 3.17896 10.8725 3.05672 11.4291C2.93449 11.9857 3.0061 12.5674 3.25969 13.0778C3.51329 13.5882 3.93365 13.9966 4.45111 14.2353H4.46736L10.8111 17.0291L8.18611 26.9941C7.91145 27.5991 7.88838 28.2885 8.12198 28.9105C8.35558 29.5325 8.82671 30.0363 9.43174 30.311C10.0368 30.5856 10.7261 30.6087 11.3482 30.3751C11.9702 30.1415 12.4739 29.6704 12.7486 29.0653L15.9986 23.4566L19.2486 29.0653C19.5374 29.6446 20.0396 30.0892 20.6496 30.3057C21.2596 30.5223 21.9297 30.4938 22.5191 30.2263C23.1085 29.9588 23.5712 29.4731 23.8098 28.8715C24.0484 28.2698 24.0444 27.5991 23.7986 27.0003L21.1736 17.0353L27.5174 14.2416H27.5336C28.0594 14.0108 28.4876 13.603 28.7439 13.0892C29.0001 12.5753 29.0681 11.9879 28.9361 11.4291ZM26.7111 12.4166L19.5949 15.5491C19.377 15.6451 19.2005 15.8156 19.0972 16.0301C18.9939 16.2446 18.9704 16.4889 19.0311 16.7191L21.8899 27.5903C21.9044 27.6485 21.925 27.7051 21.9511 27.7591C21.9931 27.8488 22.0074 27.9489 21.9924 28.0468C21.9773 28.1447 21.9336 28.2359 21.8666 28.3089C21.7997 28.3819 21.7126 28.4333 21.6163 28.4567C21.5201 28.4801 21.4191 28.4744 21.3261 28.4403C21.2018 28.3947 21.1007 28.3017 21.0449 28.1816C21.0322 28.1546 21.018 28.1283 21.0024 28.1028L16.8636 20.9653C16.7757 20.8138 16.6495 20.688 16.4977 20.6006C16.3459 20.5131 16.1738 20.4671 15.9986 20.4671C15.8234 20.4671 15.6513 20.5131 15.4995 20.6006C15.3477 20.688 15.2215 20.8138 15.1336 20.9653L10.9986 28.0966C10.983 28.122 10.9688 28.1483 10.9561 28.1753C10.9003 28.2954 10.7992 28.3885 10.6749 28.4341C10.5819 28.4682 10.4809 28.4739 10.3846 28.4505C10.2884 28.4271 10.2013 28.3756 10.1344 28.3026C10.0674 28.2297 10.0236 28.1385 10.0086 28.0406C9.99355 27.9427 10.0079 27.8425 10.0499 27.7528C10.076 27.6988 10.0965 27.6423 10.1111 27.5841L12.9661 16.7153C13.0268 16.4851 13.0034 16.2408 12.9 16.0264C12.7967 15.8119 12.6202 15.6413 12.4024 15.5453L5.28611 12.4166C5.18396 12.3678 5.10137 12.2859 5.05185 12.1841C5.00232 12.0823 4.98879 11.9668 5.01347 11.8563C5.03814 11.7459 5.09957 11.647 5.18769 11.576C5.27582 11.505 5.38543 11.466 5.49861 11.4653H26.4986C26.6121 11.4651 26.7223 11.5035 26.8111 11.5743C26.8999 11.645 26.9619 11.7438 26.9871 11.8545C27.0122 11.9652 26.999 12.0811 26.9495 12.1833C26.9001 12.2854 26.8173 12.3677 26.7149 12.4166H26.7111Z" fill="#121212"/>
</svg>
