<svg width="25" height="24" viewBox="0 0 25 24" fill="none" xmlns="http://www.w3.org/2000/svg">
<path d="M12.5 3C10.72 3 8.97991 3.52784 7.49987 4.51677C6.01983 5.50571 4.86628 6.91131 4.18509 8.55585C3.5039 10.2004 3.32567 12.01 3.67294 13.7558C4.0202 15.5016 4.87737 17.1053 6.13604 18.364C7.39471 19.6226 8.99836 20.4798 10.7442 20.8271C12.49 21.1743 14.2996 20.9961 15.9442 20.3149C17.5887 19.6337 18.9943 18.4802 19.9832 17.0001C20.9722 15.5201 21.5 13.78 21.5 12C21.4975 9.61382 20.5485 7.3261 18.8612 5.63882C17.1739 3.95154 14.8862 3.00252 12.5 3ZM12.5 19.6154C10.9938 19.6154 9.52146 19.1687 8.26912 18.332C7.01678 17.4952 6.0407 16.3058 5.46431 14.9143C4.88792 13.5227 4.73711 11.9916 5.03095 10.5143C5.32479 9.03707 6.05008 7.68014 7.11511 6.61511C8.18014 5.55008 9.53708 4.82478 11.0143 4.53094C12.4916 4.2371 14.0228 4.38791 15.4143 4.9643C16.8058 5.54069 17.9952 6.51677 18.832 7.76912C19.6688 9.02146 20.1154 10.4938 20.1154 12C20.1131 14.019 19.31 15.9547 17.8824 17.3824C16.4547 18.81 14.519 19.6131 12.5 19.6154ZM8.34616 10.2692C8.34616 10.0638 8.40706 9.86307 8.52117 9.69229C8.63528 9.52152 8.79746 9.38841 8.98722 9.30982C9.17697 9.23122 9.38577 9.21065 9.58721 9.25072C9.78865 9.29079 9.97369 9.38969 10.1189 9.53493C10.2642 9.68016 10.3631 9.86519 10.4031 10.0666C10.4432 10.2681 10.4226 10.4769 10.344 10.6666C10.2654 10.8564 10.1323 11.0186 9.96156 11.1327C9.79078 11.2468 9.59001 11.3077 9.38462 11.3077C9.1092 11.3077 8.84506 11.1983 8.65031 11.0035C8.45557 10.8088 8.34616 10.5446 8.34616 10.2692ZM16.6538 10.2692C16.6538 10.4746 16.5929 10.6754 16.4788 10.8462C16.3647 11.0169 16.2025 11.15 16.0128 11.2286C15.823 11.3072 15.6142 11.3278 15.4128 11.2877C15.2114 11.2477 15.0263 11.1488 14.8811 11.0035C14.7359 10.8583 14.6369 10.6733 14.5969 10.4718C14.5568 10.2704 14.5774 10.0616 14.656 9.87183C14.7346 9.68207 14.8677 9.51989 15.0384 9.40578C15.2092 9.29167 15.41 9.23077 15.6154 9.23077C15.8908 9.23077 16.1549 9.34018 16.3497 9.53493C16.5444 9.72968 16.6538 9.99381 16.6538 10.2692ZM16.5604 15.8077C16.6105 15.8865 16.6441 15.9746 16.6593 16.0667C16.6744 16.1589 16.6708 16.2531 16.6486 16.3438C16.6264 16.4345 16.586 16.5198 16.53 16.5945C16.474 16.6692 16.4034 16.7317 16.3226 16.7785C16.2418 16.8252 16.1523 16.8551 16.0596 16.8664C15.9669 16.8776 15.8729 16.87 15.7832 16.844C15.6936 16.818 15.6101 16.7741 15.5378 16.715C15.4655 16.6559 15.406 16.5827 15.3627 16.5C14.7163 15.3828 13.7003 14.7692 12.5 14.7692C11.2997 14.7692 10.2838 15.3837 9.63731 16.5C9.59403 16.5827 9.53446 16.6559 9.46219 16.715C9.38992 16.7741 9.30643 16.818 9.21676 16.844C9.12709 16.87 9.03308 16.8776 8.94039 16.8664C8.8477 16.8551 8.75824 16.8252 8.67741 16.7785C8.59657 16.7317 8.52602 16.6692 8.47 16.5945C8.41398 16.5198 8.37365 16.4345 8.35144 16.3438C8.32922 16.2531 8.32558 16.1589 8.34074 16.0667C8.35589 15.9746 8.38953 15.8865 8.43962 15.8077C9.3301 14.2682 10.8099 13.3846 12.5 13.3846C14.1901 13.3846 15.6699 14.2673 16.5604 15.8077Z" fill="#F85F18"/>
</svg>
