<svg width="32" height="32" viewBox="0 0 32 32" fill="none" xmlns="http://www.w3.org/2000/svg">
<path d="M21.7073 16.7076L11.7073 26.7076C11.6144 26.8005 11.5041 26.8742 11.3827 26.9245C11.2613 26.9747 11.1312 27.0006 10.9998 27.0006C10.8684 27.0006 10.7383 26.9747 10.6169 26.9245C10.4955 26.8742 10.3852 26.8005 10.2923 26.7076C10.1994 26.6147 10.1257 26.5044 10.0754 26.383C10.0251 26.2616 9.99927 26.1315 9.99927 26.0001C9.99927 25.8687 10.0251 25.7386 10.0754 25.6172C10.1257 25.4958 10.1994 25.3855 10.2923 25.2926L19.5861 16.0001L10.2923 6.70757C10.1047 6.51993 9.99927 6.26543 9.99927 6.00007C9.99927 5.7347 10.1047 5.48021 10.2923 5.29257C10.48 5.10493 10.7345 4.99951 10.9998 4.99951C11.2652 4.99951 11.5197 5.10493 11.7073 5.29257L21.7073 15.2926C21.8003 15.3854 21.8741 15.4957 21.9244 15.6171C21.9747 15.7385 22.0006 15.8687 22.0006 16.0001C22.0006 16.1315 21.9747 16.2616 21.9244 16.383C21.8741 16.5044 21.8003 16.6147 21.7073 16.7076Z" fill="#121212"/>
</svg>
