<svg width="34" height="35" viewBox="0 0 34 35" fill="none" xmlns="http://www.w3.org/2000/svg">
<path d="M23.6719 13.9563L20.5442 10.8281C20.4402 10.7241 20.3167 10.6416 20.1808 10.5853C20.0449 10.529 19.8993 10.5 19.7522 10.5C19.6051 10.5 19.4594 10.529 19.3235 10.5853C19.1876 10.6416 19.0641 10.7241 18.9601 10.8281L10.3283 19.4602C10.2239 19.5638 10.141 19.6872 10.0847 19.8231C10.0283 19.959 9.99954 20.1047 10 20.2519V23.38C10 23.6771 10.118 23.9619 10.328 24.172C10.5381 24.382 10.823 24.5 11.12 24.5H14.2484C14.3955 24.5005 14.5413 24.4717 14.6772 24.4153C14.8131 24.359 14.9364 24.2762 15.0401 24.1717L23.6719 15.5403C23.7759 15.4363 23.8584 15.3129 23.9147 15.177C23.971 15.0411 24 14.8954 24 14.7483C24 14.6012 23.971 14.4556 23.9147 14.3197C23.8584 14.1838 23.7759 14.0603 23.6719 13.9563ZM14.2484 23.38H11.12V20.2519L17.2801 14.0921L20.4084 17.2203L14.2484 23.38ZM21.2001 16.4279L18.0718 13.3004L19.7518 11.6205L22.8802 14.748L21.2001 16.4279Z" fill="#EA8850"/>
</svg>
