<svg width="32" height="32" viewBox="0 0 32 32" fill="none" xmlns="http://www.w3.org/2000/svg">
<path d="M27.7255 21.993C27.0318 20.798 26.0005 17.4167 26.0005 13.0005C26.0005 10.3483 24.9469 7.80478 23.0716 5.92942C21.1962 4.05406 18.6527 3.00049 16.0005 3.00049C13.3483 3.00049 10.8048 4.05406 8.92944 5.92942C7.05407 7.80478 6.0005 10.3483 6.0005 13.0005C6.0005 17.418 4.968 20.798 4.27425 21.993C4.09709 22.2968 4.00317 22.6419 4.00196 22.9936C4.00076 23.3453 4.09231 23.6911 4.26738 23.9961C4.44245 24.3011 4.69485 24.5546 4.99914 24.7309C5.30342 24.9072 5.64882 25.0002 6.0005 25.0005H11.1018C11.3325 26.1294 11.946 27.144 12.8387 27.8727C13.7313 28.6014 14.8482 28.9994 16.0005 28.9994C17.1528 28.9994 18.2697 28.6014 19.1623 27.8727C20.055 27.144 20.6685 26.1294 20.8993 25.0005H26.0005C26.3521 25 26.6973 24.9069 27.0014 24.7304C27.3055 24.554 27.5578 24.3005 27.7327 23.9956C27.9076 23.6906 27.9991 23.3449 27.9978 22.9933C27.9965 22.6417 27.9026 22.2967 27.7255 21.993ZM16.0005 27.0005C15.3803 27.0003 14.7754 26.8079 14.269 26.4497C13.7626 26.0915 13.3797 25.5852 13.173 25.0005H18.828C18.6213 25.5852 18.2384 26.0915 17.732 26.4497C17.2257 26.8079 16.6207 27.0003 16.0005 27.0005ZM6.0005 23.0005C6.963 21.3455 8.0005 17.5105 8.0005 13.0005C8.0005 10.8788 8.84336 8.84392 10.3436 7.34363C11.8439 5.84334 13.8788 5.00049 16.0005 5.00049C18.1222 5.00049 20.1571 5.84334 21.6574 7.34363C23.1576 8.84392 24.0005 10.8788 24.0005 13.0005C24.0005 17.5067 25.0355 21.3417 26.0005 23.0005H6.0005Z" fill="#343330"/>
</svg>
