<svg width="32" height="32" viewBox="0 0 32 32" fill="none" xmlns="http://www.w3.org/2000/svg">
<path d="M24 11.5C24 15.0638 20.9412 18.0138 17 18.445V19.5C17 19.7652 16.8946 20.0196 16.7071 20.2071C16.5196 20.3946 16.2652 20.5 16 20.5C15.7348 20.5 15.4804 20.3946 15.2929 20.2071C15.1054 20.0196 15 19.7652 15 19.5V17.5C15 17.2348 15.1054 16.9804 15.2929 16.7929C15.4804 16.6054 15.7348 16.5 16 16.5C19.3088 16.5 22 14.2575 22 11.5C22 8.7425 19.3088 6.5 16 6.5C12.6912 6.5 10 8.7425 10 11.5C10 11.7652 9.89464 12.0196 9.70711 12.2071C9.51957 12.3946 9.26522 12.5 9 12.5C8.73478 12.5 8.48043 12.3946 8.29289 12.2071C8.10536 12.0196 8 11.7652 8 11.5C8 7.64 11.5887 4.5 16 4.5C20.4113 4.5 24 7.64 24 11.5ZM16 23.5C15.6044 23.5 15.2178 23.6173 14.8889 23.8371C14.56 24.0568 14.3036 24.3692 14.1522 24.7346C14.0009 25.1001 13.9613 25.5022 14.0384 25.8902C14.1156 26.2781 14.3061 26.6345 14.5858 26.9142C14.8655 27.1939 15.2219 27.3844 15.6098 27.4616C15.9978 27.5387 16.3999 27.4991 16.7654 27.3478C17.1308 27.1964 17.4432 26.94 17.6629 26.6111C17.8827 26.2822 18 25.8956 18 25.5C18 24.9696 17.7893 24.4609 17.4142 24.0858C17.0391 23.7107 16.5304 23.5 16 23.5Z" fill="#343330"/>
</svg>
