<svg width="32" height="32" viewBox="0 0 32 32" fill="none" xmlns="http://www.w3.org/2000/svg">
<path d="M27.2772 10.608C28.6102 13.3959 28.8633 16.5788 27.9876 19.5424C27.1118 22.5059 25.1694 25.04 22.5351 26.6556C19.9008 28.2712 16.7615 28.8537 13.7229 28.2908C10.6844 27.7279 7.96211 26.0594 6.08143 23.6073C4.20076 21.1553 3.29503 18.0935 3.53906 15.0129C3.78308 11.9323 5.15957 9.05132 7.40284 6.92594C9.64612 4.80056 12.5972 3.58146 15.6864 3.50394C18.7757 3.42641 21.7842 4.49596 24.1312 6.50615L26.8534 3.78281C27.0336 3.60256 27.2781 3.50129 27.533 3.50129C27.7879 3.50129 28.0324 3.60256 28.2126 3.78281C28.3929 3.96306 28.4941 4.20753 28.4941 4.46244C28.4941 4.71735 28.3929 4.96183 28.2126 5.14208L16.6853 16.6694C16.505 16.8497 16.2605 16.951 16.0056 16.951C15.7507 16.951 15.5062 16.8497 15.326 16.6694C15.1457 16.4892 15.0445 16.2447 15.0445 15.9898C15.0445 15.7349 15.1457 15.4904 15.326 15.3102L18.6545 11.9816C17.7524 11.385 16.6754 11.1104 15.5978 11.202C14.5202 11.2937 13.5051 11.7464 12.7167 12.4868C11.9284 13.2272 11.4131 14.212 11.2541 15.2818C11.0951 16.3516 11.3018 17.4437 11.8408 18.3813C12.3797 19.319 13.2194 20.0473 14.2238 20.4484C15.2281 20.8495 16.3385 20.8998 17.3751 20.5913C18.4116 20.2828 19.3138 19.6335 19.9354 18.7485C20.557 17.8635 20.8618 16.7946 20.8003 15.7148C20.7932 15.5887 20.811 15.4624 20.8527 15.3431C20.8945 15.2238 20.9593 15.114 21.0434 15.0197C21.1276 14.9255 21.2295 14.8488 21.3434 14.794C21.4572 14.7391 21.5807 14.7073 21.7069 14.7002C21.9616 14.6858 22.2117 14.7733 22.402 14.9433C22.4962 15.0275 22.5729 15.1294 22.6277 15.2433C22.6825 15.3571 22.7144 15.4806 22.7215 15.6068C22.8091 17.1351 22.3726 18.6475 21.4841 19.8941C20.5957 21.1407 19.3084 22.0469 17.8352 22.4628C16.362 22.8787 14.7909 22.7795 13.3817 22.1816C11.9725 21.5836 10.8095 20.5227 10.0849 19.1743C9.36032 17.8258 9.11754 16.2704 9.39668 14.7653C9.67582 13.2601 10.4602 11.8953 11.6201 10.8963C12.78 9.89733 14.2461 9.32403 15.776 9.27116C17.3059 9.2183 18.8081 9.68903 20.0342 10.6056L22.7659 7.87382C20.764 6.21171 18.2186 5.34784 15.6186 5.44812C13.0185 5.5484 10.5472 6.60577 8.67925 8.41713C6.8113 10.2285 5.67844 12.6661 5.49825 15.2619C5.31806 17.8576 6.10324 20.4284 7.70299 22.4804C9.30275 24.5325 11.6043 25.9212 14.1655 26.3798C16.7268 26.8384 19.3671 26.3345 21.5795 24.9649C23.7919 23.5954 25.4202 21.4567 26.1519 18.9597C26.8835 16.4627 26.6668 13.7834 25.5433 11.4365C25.4335 11.2066 25.4194 10.9424 25.5043 10.7021C25.5892 10.4619 25.7661 10.2651 25.996 10.1553C26.2259 10.0454 26.4901 10.0314 26.7304 10.1163C26.9706 10.2012 27.1674 10.378 27.2772 10.608Z" fill="#121212"/>
</svg>
