<svg width="32" height="32" viewBox="0 0 32 32" fill="none" xmlns="http://www.w3.org/2000/svg">
<path d="M13.3333 6.66675H18.6666V4.00008C18.6666 3.64646 18.5261 3.30732 18.2761 3.05727C18.026 2.80722 17.6869 2.66675 17.3333 2.66675H14.6666C14.313 2.66675 13.9738 2.80722 13.7238 3.05727C13.4737 3.30732 13.3333 3.64646 13.3333 4.00008V6.66675Z" stroke="black" stroke-width="1.33333" stroke-linecap="round" stroke-linejoin="round"/>
<path d="M18.6666 4.66675C18.6666 6.83475 19.3426 8.94941 20.5999 10.7161L20.6666 10.8094C21.9676 12.637 22.6667 14.8247 22.6666 17.0681V25.3334C22.6666 26.0407 22.3856 26.7189 21.8855 27.219C21.3854 27.7191 20.7072 28.0001 19.9999 28.0001H11.9999C11.2927 28.0001 10.6144 27.7191 10.1143 27.219C9.6142 26.7189 9.33325 26.0407 9.33325 25.3334V17.0667C9.33325 14.8241 10.0319 12.6374 11.3333 10.8094L11.3999 10.7161C12.6575 8.94961 13.3333 6.83513 13.3333 4.66675" stroke="black" stroke-width="1.33333" stroke-linecap="round" stroke-linejoin="round"/>
<path d="M9.33325 19.7373C9.86659 19.508 10.3275 19.1379 10.6666 18.6667C10.9695 18.2447 11.3705 17.9028 11.8352 17.6705C12.2998 17.4382 12.8139 17.3225 13.3333 17.3333C13.8526 17.3225 14.3668 17.4382 14.8314 17.6705C15.296 17.9028 15.697 18.2447 15.9999 18.6667C16.3028 19.0887 16.7039 19.4306 17.1685 19.6629C17.6331 19.8952 18.1473 20.0109 18.6666 20C19.1859 20.0109 19.7001 19.8952 20.1647 19.6629C20.6293 19.4306 21.0304 19.0887 21.3333 18.6667C21.672 18.1945 22.1329 17.8234 22.6666 17.5933" stroke="black" stroke-width="1.33333" stroke-linecap="round" stroke-linejoin="round"/>
</svg>
