<svg width="16" height="16" viewBox="0 0 16 16" fill="none" xmlns="http://www.w3.org/2000/svg">
<path d="M16 8C16 8.17238 15.9298 8.3377 15.8047 8.45959C15.6797 8.58149 15.5102 8.64996 15.3334 8.64996H2.27628L7.13862 13.3898C7.20056 13.4502 7.24969 13.5219 7.28322 13.6008C7.31674 13.6797 7.33399 13.7643 7.33399 13.8497C7.33399 13.9351 7.31674 14.0196 7.28322 14.0985C7.24969 14.1774 7.20056 14.2491 7.13862 14.3095C7.07669 14.3699 7.00315 14.4178 6.92223 14.4505C6.8413 14.4832 6.75457 14.5 6.66697 14.5C6.57938 14.5 6.49264 14.4832 6.41172 14.4505C6.33079 14.4178 6.25726 14.3699 6.19532 14.3095L0.195518 8.45985C0.133536 8.39949 0.0843647 8.3278 0.0508163 8.2489C0.0172679 8.16999 0 8.08541 0 8C0 7.91458 0.0172679 7.83001 0.0508163 7.7511C0.0843647 7.6722 0.133536 7.60051 0.195518 7.54015L6.19532 1.69048C6.32041 1.56852 6.49007 1.5 6.66697 1.5C6.84388 1.5 7.01353 1.56852 7.13862 1.69048C7.26371 1.81244 7.33399 1.97785 7.33399 2.15033C7.33399 2.3228 7.26371 2.48821 7.13862 2.61017L2.27628 7.35004H15.3334C15.5102 7.35004 15.6797 7.41851 15.8047 7.54041C15.9298 7.6623 16 7.82762 16 8Z" fill="#121212"/>
</svg>
