<svg width="16" height="16" viewBox="0 0 16 16" fill="none" xmlns="http://www.w3.org/2000/svg">
<path d="M15.8045 8.45985L9.80468 14.3095C9.67959 14.4315 9.50993 14.5 9.33303 14.5C9.15612 14.5 8.98647 14.4315 8.86138 14.3095C8.73629 14.1876 8.66601 14.0222 8.66601 13.8497C8.66601 13.6772 8.73629 13.5118 8.86138 13.3898L13.7237 8.64996H0.666645C0.48984 8.64996 0.320276 8.58149 0.195256 8.45959C0.0702357 8.3377 0 8.17238 0 8C0 7.82762 0.0702357 7.6623 0.195256 7.54041C0.320276 7.41851 0.48984 7.35004 0.666645 7.35004H13.7237L8.86138 2.61017C8.73629 2.48821 8.66601 2.3228 8.66601 2.15033C8.66601 1.97785 8.73629 1.81244 8.86138 1.69048C8.98647 1.56852 9.15612 1.5 9.33303 1.5C9.50993 1.5 9.67959 1.56852 9.80468 1.69048L15.8045 7.54015C15.8665 7.60051 15.9156 7.6722 15.9492 7.7511C15.9827 7.83001 16 7.91458 16 8C16 8.08541 15.9827 8.16999 15.9492 8.2489C15.9156 8.3278 15.8665 8.39949 15.8045 8.45985Z" fill="#121212"/>
</svg>
