<svg width="32" height="31" viewBox="0 0 32 31" fill="none" xmlns="http://www.w3.org/2000/svg">
<path d="M22.3447 16.6035L16.0001 22.9481L9.93127 16.6035L13.2415 16.0518L13.2415 8.60368L18.4828 8.60368L19.0345 16.0518L22.3447 16.6035Z" fill="#009F99" fill-opacity="0.5"/>
<path d="M23.1304 16.1163C23.0887 16.0155 23.018 15.9293 22.9273 15.8687C22.8366 15.808 22.7299 15.7757 22.6208 15.7756H19.3105V8.60342C19.3105 8.31077 19.1943 8.03011 18.9874 7.82318C18.7804 7.61625 18.4998 7.5 18.2071 7.5H13.7935C13.5008 7.5 13.2202 7.61625 13.0132 7.82318C12.8063 8.03011 12.69 8.31077 12.69 8.60342V15.7756H9.37978C9.2706 15.7756 9.16385 15.8079 9.07304 15.8685C8.98223 15.9291 8.91145 16.0153 8.86966 16.1162C8.82786 16.217 8.81694 16.328 8.83826 16.4351C8.85959 16.5422 8.9122 16.6405 8.98945 16.7177L15.61 23.3382C15.6612 23.3895 15.722 23.4302 15.789 23.4579C15.856 23.4857 15.9278 23.5 16.0003 23.5C16.0728 23.5 16.1446 23.4857 16.2116 23.4579C16.2785 23.4302 16.3394 23.3895 16.3906 23.3382L23.0111 16.7177C23.0883 16.6405 23.1408 16.5421 23.162 16.4351C23.1832 16.3281 23.1723 16.2171 23.1304 16.1163ZM16.0003 22.1679L10.7115 16.8791H13.2417C13.3881 16.8791 13.5284 16.8209 13.6319 16.7175C13.7353 16.614 13.7935 16.4737 13.7935 16.3273V8.60342H18.2071V16.3273C18.2071 16.4737 18.2653 16.614 18.3687 16.7175C18.4722 16.8209 18.6125 16.8791 18.7588 16.8791H21.2891L16.0003 22.1679Z" fill="#009F99"/>
</svg>
