<svg width="16" height="16" viewBox="0 0 16 16" fill="none" xmlns="http://www.w3.org/2000/svg">
<path d="M14 8.00012V11.5556C14 11.6734 13.9548 11.7865 13.8745 11.8698C13.7941 11.9532 13.6851 12 13.5714 12H10.1429C10.0293 12 9.92027 11.9532 9.83989 11.8698C9.75952 11.7865 9.71437 11.6734 9.71437 11.5556C9.71437 11.4377 9.75952 11.3247 9.83989 11.2413C9.92027 11.158 10.0293 11.1111 10.1429 11.1111H12.537L8.42868 6.85071L6.58908 8.75899C6.54927 8.80031 6.50201 8.83309 6.44998 8.85546C6.39795 8.87782 6.34219 8.88933 6.28587 8.88933C6.22955 8.88933 6.17378 8.87782 6.12175 8.85546C6.06973 8.83309 6.02246 8.80031 5.98266 8.75899L2.12559 4.75911C2.04518 4.67572 2 4.56261 2 4.44468C2 4.32674 2.04518 4.21364 2.12559 4.13024C2.20601 4.04685 2.31508 4 2.4288 4C2.54253 4 2.65159 4.04685 2.73201 4.13024L6.28587 7.81624L8.12547 5.90797C8.16528 5.86664 8.21254 5.83386 8.26457 5.8115C8.31659 5.78913 8.37236 5.77762 8.42868 5.77762C8.485 5.77762 8.54077 5.78913 8.5928 5.8115C8.64482 5.83386 8.69209 5.86664 8.73189 5.90797L13.1429 10.4828V8.00012C13.1429 7.88225 13.188 7.76921 13.2684 7.68586C13.3488 7.60252 13.4578 7.55569 13.5714 7.55569C13.6851 7.55569 13.7941 7.60252 13.8745 7.68586C13.9548 7.76921 14 7.88225 14 8.00012Z" fill="#009F99"/>
</svg>
