<svg width="16" height="16" viewBox="0 0 16 16" fill="none" xmlns="http://www.w3.org/2000/svg">
<path d="M14 4.44443V7.99988C14 8.11775 13.9548 8.23079 13.8745 8.31414C13.7941 8.39748 13.6851 8.44431 13.5714 8.44431C13.4578 8.44431 13.3488 8.39748 13.2684 8.31414C13.188 8.23079 13.1429 8.11775 13.1429 7.99988V5.51718L8.73189 10.092C8.69209 10.1334 8.64482 10.1661 8.5928 10.1885C8.54077 10.2109 8.485 10.2224 8.42868 10.2224C8.37236 10.2224 8.31659 10.2109 8.26457 10.1885C8.21254 10.1661 8.16528 10.1334 8.12547 10.092L6.28587 8.18376L2.73201 11.8698C2.65159 11.9531 2.54253 12 2.4288 12C2.31508 12 2.20601 11.9531 2.12559 11.8698C2.04518 11.7864 2 11.6733 2 11.5553C2 11.4374 2.04518 11.3243 2.12559 11.2409L5.98266 7.24101C6.02246 7.19969 6.06973 7.16691 6.12175 7.14454C6.17378 7.12218 6.22955 7.11067 6.28587 7.11067C6.34219 7.11067 6.39795 7.12218 6.44998 7.14454C6.50201 7.16691 6.54927 7.19969 6.58908 7.24101L8.42868 9.14929L12.537 4.88886H10.1429C10.0293 4.88886 9.92027 4.84204 9.83989 4.75869C9.75952 4.67534 9.71437 4.5623 9.71437 4.44443C9.71437 4.32656 9.75952 4.21352 9.83989 4.13017C9.92027 4.04682 10.0293 4 10.1429 4H13.5714C13.6851 4 13.7941 4.04682 13.8745 4.13017C13.9548 4.21352 14 4.32656 14 4.44443Z" fill="#F85F18"/>
</svg>
