<svg width="32" height="32" viewBox="0 0 32 32" fill="none" xmlns="http://www.w3.org/2000/svg">
<path d="M20.0001 5.46558C20.0001 4.67445 19.7655 3.90109 19.326 3.2433C18.8864 2.5855 18.2617 2.07281 17.5308 1.77006C16.7999 1.46731 15.9956 1.3881 15.2197 1.54244C14.4438 1.69678 13.7311 2.07774 13.1717 2.63715C12.6122 3.19656 12.2313 3.90929 12.0769 4.68522C11.9226 5.46114 12.0018 6.26541 12.3046 6.99631C12.6073 7.72722 13.12 8.35193 13.7778 8.79146C14.4356 9.23098 15.209 9.46558 16.0001 9.46558C17.0609 9.46558 18.0784 9.04415 18.8285 8.29401C19.5787 7.54386 20.0001 6.52644 20.0001 5.46558ZM16.0001 7.46558C15.6045 7.46558 15.2178 7.34828 14.8889 7.12852C14.56 6.90875 14.3037 6.5964 14.1523 6.23095C14.0009 5.86549 13.9613 5.46336 14.0385 5.0754C14.1157 4.68744 14.3062 4.33107 14.5859 4.05136C14.8656 3.77166 15.2219 3.58118 15.6099 3.50401C15.9979 3.42684 16.4 3.46644 16.7654 3.61782C17.1309 3.76919 17.4433 4.02554 17.663 4.35444C17.8828 4.68334 18.0001 5.07002 18.0001 5.46558C18.0001 5.99601 17.7894 6.50472 17.4143 6.87979C17.0392 7.25486 16.5305 7.46558 16.0001 7.46558ZM27.2926 17.2218L21.6463 10.8193C21.2709 10.3938 20.8093 10.053 20.292 9.8196C19.7748 9.58619 19.2138 9.46552 18.6463 9.46558H13.3538C12.7864 9.46552 12.2254 9.58619 11.7081 9.8196C11.1909 10.053 10.7292 10.3938 10.3538 10.8193L4.70758 17.2218C4.24905 17.6908 3.99318 18.3212 3.99513 18.977C3.99708 19.6329 4.25669 20.2617 4.718 20.728C5.17931 21.1942 5.80536 21.4605 6.46117 21.4694C7.11699 21.4783 7.75003 21.2291 8.22383 20.7756L10.2613 19.1406L8.19383 27.0006C7.92 27.6048 7.89739 28.293 8.13099 28.9139C8.36459 29.5347 8.83526 30.0374 9.43946 30.3112C10.0437 30.585 10.7319 30.6076 11.3527 30.374C11.9736 30.1404 12.4762 29.6698 12.7501 29.0656L16.0001 23.4568L19.2501 29.0656C19.5362 29.6495 20.0385 30.099 20.6505 30.3187C21.2624 30.5384 21.936 30.511 22.5281 30.2423C23.1202 29.9737 23.5844 29.4849 23.8221 28.8796C24.0598 28.2744 24.0524 27.6004 23.8013 27.0006L21.7388 19.1406L23.7763 20.7756C24.2501 21.2291 24.8832 21.4783 25.539 21.4694C26.1948 21.4605 26.8209 21.1942 27.2822 20.728C27.7435 20.2617 28.0031 19.6329 28.005 18.977C28.007 18.3212 27.7511 17.6908 27.2926 17.2218ZM25.8538 19.3181C25.8074 19.3646 25.7523 19.4014 25.6916 19.4266C25.6309 19.4518 25.5658 19.4647 25.5001 19.4647C25.4344 19.4647 25.3693 19.4518 25.3086 19.4266C25.2479 19.4014 25.1928 19.3646 25.1463 19.3181C25.1201 19.2931 25.0938 19.2681 25.0651 19.2456L20.6251 15.6856C20.4612 15.5548 20.2604 15.4788 20.051 15.4684C19.8416 15.4579 19.6342 15.5136 19.4581 15.6274C19.2821 15.7413 19.1463 15.9076 19.0699 16.1029C18.9935 16.2982 18.9805 16.5125 19.0326 16.7156L21.8926 27.5906C21.9073 27.6486 21.9274 27.7051 21.9526 27.7593C21.9814 27.819 21.9981 27.8838 22.0017 27.9499C22.0053 28.0161 21.9957 28.0823 21.9735 28.1447C21.9513 28.2072 21.9169 28.2646 21.8723 28.3136C21.8277 28.3626 21.7738 28.4022 21.7138 28.4302C21.6537 28.4582 21.5887 28.474 21.5225 28.4767C21.4563 28.4793 21.3902 28.4688 21.3281 28.4457C21.266 28.4225 21.2091 28.3873 21.1607 28.342C21.1124 28.2967 21.0735 28.2423 21.0463 28.1818C21.0341 28.1548 21.0203 28.1285 21.0051 28.1031L16.8651 20.9656C16.7772 20.814 16.651 20.6883 16.4992 20.6008C16.3474 20.5134 16.1753 20.4674 16.0001 20.4674C15.8249 20.4674 15.6528 20.5134 15.501 20.6008C15.3492 20.6883 15.223 20.814 15.1351 20.9656L11.0001 28.0968C10.9848 28.1223 10.9711 28.1486 10.9588 28.1756C10.9311 28.2352 10.8918 28.2887 10.8433 28.3331C10.7949 28.3775 10.7381 28.4119 10.6763 28.4343C10.5833 28.4684 10.4823 28.4741 10.3861 28.4507C10.2899 28.4273 10.2028 28.3759 10.1358 28.3029C10.0689 28.2299 10.0251 28.1387 10.0101 28.0408C9.99502 27.9429 10.0094 27.8428 10.0513 27.7531C10.0765 27.6988 10.0966 27.6423 10.1113 27.5843L12.9676 16.7156C13.0197 16.5125 13.0066 16.2982 12.9303 16.1029C12.8539 15.9076 12.7181 15.7413 12.542 15.6274C12.366 15.5136 12.1586 15.4579 11.9492 15.4684C11.7398 15.4788 11.5389 15.5548 11.3751 15.6856L6.93508 19.2456C6.90633 19.2681 6.88008 19.2931 6.85383 19.3181C6.80791 19.3665 6.75275 19.4052 6.69162 19.432C6.63049 19.4588 6.56461 19.473 6.49788 19.474C6.43115 19.4749 6.36491 19.4624 6.30307 19.4373C6.24123 19.4122 6.18504 19.375 6.1378 19.3279C6.09057 19.2807 6.05326 19.2246 6.02806 19.1628C6.00286 19.101 5.99028 19.0348 5.99108 18.9681C5.99187 18.9013 6.00602 18.8354 6.03268 18.7742C6.05935 18.7131 6.09799 18.6578 6.14633 18.6118C6.16133 18.5968 6.17508 18.5818 6.18883 18.5656L11.8538 12.1418C12.0416 11.9292 12.2725 11.7589 12.5311 11.6423C12.7897 11.5257 13.0701 11.4655 13.3538 11.4656H18.6463C18.93 11.4655 19.2105 11.5257 19.4691 11.6423C19.7277 11.7589 19.9586 11.9292 20.1463 12.1418L25.8113 18.5656C25.8251 18.5818 25.8388 18.5968 25.8538 18.6118C25.9473 18.7056 25.9999 18.8326 25.9999 18.965C25.9999 19.0974 25.9473 19.2243 25.8538 19.3181Z" fill="#343330"/>
</svg>
