<svg width="32" height="32" viewBox="0 0 32 32" fill="none" xmlns="http://www.w3.org/2000/svg">
<path d="M5.33333 8H12.568C12.8008 8.00016 13.0296 8.0613 13.2315 8.17733C13.4333 8.29335 13.6013 8.46022 13.7187 8.66133L15.1373 11.092C15.4099 11.5594 15.7745 11.9667 16.209 12.2891C16.6435 12.6116 17.139 12.8425 17.6653 12.968L23.9013 14.4533C25.0682 14.731 26.1075 15.394 26.8512 16.3351C27.5949 17.2762 27.9996 18.4405 28 19.64V22.6667C28 23.0203 27.8595 23.3594 27.6095 23.6095C27.3594 23.8595 27.0203 24 26.6667 24H5.33333C4.97971 24 4.64057 23.8595 4.39052 23.6095C4.14048 23.3594 4 23.0203 4 22.6667V9.33333C4 8.97971 4.14048 8.64057 4.39052 8.39052C4.64057 8.14048 4.97971 8 5.33333 8Z" stroke="black" stroke-width="1.33333" stroke-linecap="round" stroke-linejoin="round"/>
<path d="M18.6667 17.3333L20.0001 14.6666" stroke="black" stroke-width="1.33333" stroke-linecap="round" stroke-linejoin="round"/>
<path d="M10.6667 24V22.6667C10.6667 21.2522 10.1048 19.8957 9.10457 18.8955C8.10438 17.8953 6.74782 17.3334 5.33333 17.3334H4" stroke="black" stroke-width="1.33333" stroke-linecap="round" stroke-linejoin="round"/>
<path d="M13.3333 16L15.3333 12" stroke="black" stroke-width="1.33333" stroke-linecap="round" stroke-linejoin="round"/>
</svg>
