<svg width="32" height="31" viewBox="0 0 32 31" fill="none" xmlns="http://www.w3.org/2000/svg">
<path d="M9.42822 14.6425L15.9995 8.07129L22.285 14.6425L18.8565 15.2139V22.928H13.4281L12.8567 15.2139L9.42822 14.6425Z" fill="#FCA5A5"/>
<path d="M23.2613 14.5245L16.4044 7.66759C16.3513 7.61446 16.2883 7.57231 16.2189 7.54356C16.1496 7.5148 16.0752 7.5 16.0001 7.5C15.925 7.5 15.8507 7.5148 15.7813 7.54356C15.7119 7.57231 15.6489 7.61446 15.5958 7.66759L8.73888 14.5245C8.65887 14.6045 8.60438 14.7063 8.58229 14.8172C8.56021 14.9281 8.57152 15.0431 8.61481 15.1475C8.6581 15.252 8.73141 15.3413 8.82546 15.4041C8.91951 15.4668 9.03007 15.5003 9.14315 15.5002H12.5716V22.3572C12.5716 22.6603 12.692 22.951 12.9064 23.1653C13.1207 23.3796 13.4114 23.5 13.7145 23.5H18.2858C18.5888 23.5 18.8795 23.3796 19.0939 23.1653C19.3082 22.951 19.4286 22.6603 19.4286 22.3572V15.5002H22.8571C22.9701 15.5003 23.0807 15.4668 23.1747 15.4041C23.2688 15.3413 23.3421 15.252 23.3854 15.1475C23.4287 15.0431 23.44 14.9281 23.4179 14.8172C23.3958 14.7063 23.3413 14.6045 23.2613 14.5245ZM18.8572 14.3574C18.7056 14.3574 18.5603 14.4176 18.4531 14.5248C18.346 14.6319 18.2858 14.7773 18.2858 14.9288V22.3572H13.7145V14.9288C13.7145 14.7773 13.6542 14.6319 13.5471 14.5248C13.4399 14.4176 13.2946 14.3574 13.143 14.3574H10.5224L16.0001 8.8797L21.4778 14.3574H18.8572Z" fill="#FC6B6C"/>
</svg>
