<svg width="32" height="32" viewBox="0 0 32 32" fill="none" xmlns="http://www.w3.org/2000/svg">
<path d="M3.5 15.5381C3.50153 14.0746 4.08734 12.6715 5.12888 11.6367C6.17041 10.6019 7.5826 10.0199 9.05556 10.0183H13.662C13.9988 9.99878 19.8681 9.58825 25.4572 4.93098C25.7271 4.70577 26.0561 4.56176 26.4055 4.51587C26.7549 4.46998 27.1102 4.52412 27.4298 4.67192C27.7493 4.81972 28.0197 5.05506 28.2093 5.35027C28.3989 5.64549 28.4997 5.98832 28.5 6.33851V24.7376C28.5 25.0879 28.3993 25.4309 28.2098 25.7263C28.0203 26.0217 27.7499 26.2572 27.4303 26.4051C27.1107 26.553 26.7553 26.6073 26.4058 26.5614C26.0562 26.5156 25.7272 26.3716 25.4572 26.1463C21.0856 22.5033 16.5451 21.4591 14.6111 21.167V24.8147C14.6115 25.1178 14.5365 25.4164 14.3927 25.6838C14.2489 25.9513 14.0409 26.1793 13.787 26.3475L12.5139 27.1904C12.2678 27.3536 11.986 27.4559 11.6919 27.4886C11.3979 27.5213 11.1003 27.4835 10.824 27.3785C10.5476 27.2734 10.3007 27.1041 10.1038 26.8847C9.90684 26.6653 9.76569 26.4023 9.69213 26.1175L8.32986 21.0164C6.99337 20.8397 5.76692 20.1869 4.87854 19.1792C3.99015 18.1715 3.50028 16.8776 3.5 15.5381ZM26.6481 24.7296V6.33851C21.6933 10.468 16.6215 11.5133 14.6111 11.7708V19.3007C16.6192 19.5629 21.6898 20.6059 26.6481 24.7296ZM11.4861 25.6495V25.6622L12.7593 24.8193V21.0578H10.2593L11.4861 25.6495ZM9.05556 19.2179H12.7593V11.8582H9.05556C8.07327 11.8582 7.13122 12.2459 6.43664 12.936C5.74206 13.6261 5.35185 14.5621 5.35185 15.5381C5.35185 16.514 5.74206 17.45 6.43664 18.1401C7.13122 18.8302 8.07327 19.2179 9.05556 19.2179Z" fill="#5790F4"/>
</svg>
