<svg width="33" height="33" viewBox="0 0 33 33" fill="none" xmlns="http://www.w3.org/2000/svg">
<circle cx="7.76221" cy="16.5658" r="2.335" stroke="white" stroke-width="1.33" stroke-linejoin="round"/>
<path d="M11.7622 26.5658V6.56583C11.7622 5.89916 12.0622 4.56583 13.2622 4.56583C14.4622 4.56583 14.7622 5.89916 14.7622 6.56583V12.5658H23.7622C25.2622 16.3992 28.6965 23.8688 29.2622 25.5658C29.7622 27.0658 29.4932 27.7003 28.7622 28.0658C27.7622 28.5658 26.7622 28.0658 26.2622 27.0658C25.8622 26.2658 23.7622 21.7325 22.7622 19.0658C22.0955 21.3992 20.6622 26.2658 20.2622 27.0658C19.7622 28.0658 18.7622 28.5658 17.7622 28.0658C16.9622 27.6658 17.0955 26.5658 17.2622 26.0658L19.7622 19.0658H14.7622V26.5658C14.7622 27.2325 14.4622 28.5658 13.2622 28.5658C12.0622 28.5658 11.7622 27.2325 11.7622 26.5658Z" stroke="white" stroke-width="1.33" stroke-linejoin="round"/>
</svg>
