<svg width="44" height="44" viewBox="0 0 44 44" fill="none" xmlns="http://www.w3.org/2000/svg">
<path d="M0 22C0 9.84974 9.84974 0 22 0C34.1503 0 44 9.84974 44 22C44 34.1503 34.1503 44 22 44C9.84974 44 0 34.1503 0 22Z" fill="#F3AF5C"/>
<path d="M33.7255 27.993C33.0318 26.798 32.0005 23.4167 32.0005 19.0005C32.0005 16.3483 30.9469 13.8048 29.0716 11.9294C27.1962 10.0541 24.6527 9.00049 22.0005 9.00049C19.3483 9.00049 16.8048 10.0541 14.9294 11.9294C13.0541 13.8048 12.0005 16.3483 12.0005 19.0005C12.0005 23.418 10.968 26.798 10.2743 27.993C10.0971 28.2968 10.0032 28.6419 10.002 28.9936C10.0008 29.3453 10.0923 29.6911 10.2674 29.9961C10.4424 30.3011 10.6949 30.5546 10.9991 30.7309C11.3034 30.9072 11.6488 31.0002 12.0005 31.0005H17.1018C17.3325 32.1294 17.946 33.144 18.8387 33.8727C19.7313 34.6014 20.8482 34.9994 22.0005 34.9994C23.1528 34.9994 24.2697 34.6014 25.1623 33.8727C26.055 33.144 26.6685 32.1294 26.8993 31.0005H32.0005C32.3521 31 32.6973 30.9069 33.0014 30.7304C33.3055 30.554 33.5578 30.3005 33.7327 29.9956C33.9076 29.6906 33.9991 29.3449 33.9978 28.9933C33.9965 28.6417 33.9026 28.2967 33.7255 27.993ZM22.0005 33.0005C21.3803 33.0003 20.7754 32.8079 20.269 32.4497C19.7626 32.0915 19.3797 31.5852 19.173 31.0005H24.828C24.6213 31.5852 24.2384 32.0915 23.732 32.4497C23.2257 32.8079 22.6207 33.0003 22.0005 33.0005ZM12.0005 29.0005C12.963 27.3455 14.0005 23.5105 14.0005 19.0005C14.0005 16.8788 14.8434 14.8439 16.3436 13.3436C17.8439 11.8433 19.8788 11.0005 22.0005 11.0005C24.1222 11.0005 26.1571 11.8433 27.6574 13.3436C29.1576 14.8439 30.0005 16.8788 30.0005 19.0005C30.0005 23.5067 31.0355 27.3417 32.0005 29.0005H12.0005Z" fill="white"/>
</svg>
