<svg width="36" height="36" viewBox="0 0 36 36" fill="none" xmlns="http://www.w3.org/2000/svg">
<path d="M6 18C6 11.3726 11.3726 6 18 6C24.6274 6 30 11.3726 30 18C30 24.6274 24.6274 30 18 30C11.3726 30 6 24.6274 6 18Z" fill="#F3AF5C"/>
<path d="M24.6719 14.4563L21.5442 11.3281C21.4402 11.2241 21.3167 11.1416 21.1808 11.0853C21.0449 11.029 20.8993 11 20.7522 11C20.6051 11 20.4594 11.029 20.3235 11.0853C20.1876 11.1416 20.0641 11.2241 19.9601 11.3281L11.3283 19.9602C11.2239 20.0638 11.141 20.1872 11.0847 20.3231C11.0283 20.459 10.9995 20.6047 11 20.7519V23.88C11 24.1771 11.118 24.4619 11.328 24.672C11.5381 24.882 11.823 25 12.12 25H15.2484C15.3955 25.0005 15.5413 24.9717 15.6772 24.9153C15.8131 24.859 15.9364 24.7762 16.0401 24.6717L24.6719 16.0403C24.7759 15.9363 24.8584 15.8129 24.9147 15.677C24.971 15.5411 25 15.3954 25 15.2483C25 15.1012 24.971 14.9556 24.9147 14.8197C24.8584 14.6838 24.7759 14.5603 24.6719 14.4563ZM15.2484 23.88H12.12V20.7519L18.2801 14.5921L21.4084 17.7203L15.2484 23.88ZM22.2001 16.9279L19.0718 13.8004L20.7518 12.1205L23.8802 15.248L22.2001 16.9279Z" fill="white"/>
</svg>
