<svg width="18" height="13" viewBox="0 0 18 13" fill="none" xmlns="http://www.w3.org/2000/svg">
<path d="M6.71411 9.41895C8.13383 8.19339 10.2133 8.19352 11.6331 9.41895C11.7045 9.48488 11.7463 9.57847 11.7483 9.67676C11.7502 9.775 11.7125 9.86963 11.6438 9.93848L9.42017 12.2285C9.35506 12.2958 9.26668 12.3339 9.17407 12.334C9.08136 12.334 8.99218 12.2958 8.927 12.2285L6.70337 9.93848C6.63476 9.8696 6.59688 9.77496 6.59888 9.67676C6.60091 9.57847 6.64263 9.48483 6.71411 9.41895ZM3.70825 6.67871C6.76733 3.77412 11.5046 3.77412 14.5637 6.67871C14.6327 6.74682 14.6721 6.84049 14.6731 6.93848C14.674 7.03636 14.6362 7.13075 14.5686 7.2002L13.2834 8.52539C13.151 8.66068 12.9369 8.66398 12.801 8.53223C11.7965 7.60381 10.4901 7.08981 9.13501 7.08984C7.78069 7.09042 6.47484 7.60432 5.47095 8.53223C5.33507 8.66398 5.12097 8.66074 4.98853 8.52539L3.70337 7.2002C3.63561 7.13084 3.59805 7.03641 3.59888 6.93848C3.59978 6.84051 3.63926 6.74681 3.70825 6.67871ZM0.706299 3.94238C5.39815 -0.647226 12.7996 -0.647163 17.4915 3.94238C17.5594 4.01057 17.5983 4.10393 17.5989 4.20117C17.5993 4.29826 17.5614 4.39204 17.4944 4.46094L16.2083 5.78613C16.0757 5.92211 15.8605 5.92382 15.7258 5.79004C13.9382 4.05527 11.5654 3.088 9.09888 3.08789C6.63225 3.08801 4.25965 4.05527 2.47192 5.79004C2.33738 5.92393 2.12191 5.92228 1.9895 5.78613L0.702393 4.46094C0.635423 4.39201 0.598378 4.29823 0.598877 4.20117C0.599504 4.10393 0.638333 4.01052 0.706299 3.94238Z" fill="#1C1C1C"/>
</svg>
