<svg width="18" height="19" viewBox="0 0 18 19" fill="none" xmlns="http://www.w3.org/2000/svg">
<path d="M15.6719 6.36383L12.5442 3.23565C12.4402 3.13163 12.3167 3.04911 12.1808 2.99281C12.0449 2.93651 11.8993 2.90753 11.7522 2.90753C11.6051 2.90753 11.4594 2.93651 11.3235 2.99281C11.1876 3.04911 11.0641 3.13163 10.9601 3.23565L2.32831 11.8677C2.22385 11.9713 2.14104 12.0947 2.08468 12.2306C2.02832 12.3665 1.99954 12.5123 2.00001 12.6594V15.7876C2.00001 16.0846 2.11801 16.3695 2.32805 16.5795C2.53809 16.7895 2.82297 16.9075 3.12002 16.9075H6.24836C6.39549 16.908 6.54125 16.8792 6.67717 16.8229C6.81308 16.7665 6.93644 16.6837 7.04006 16.5792L15.6719 7.94787C15.7759 7.84387 15.8584 7.72039 15.9147 7.5845C15.971 7.4486 16 7.30295 16 7.15585C16 7.00875 15.971 6.8631 15.9147 6.7272C15.8584 6.59131 15.7759 6.46783 15.6719 6.36383ZM6.24836 15.7876H3.12002V12.6594L9.28009 6.49962L12.4084 9.62781L6.24836 15.7876ZM13.2001 8.83544L10.0718 5.70796L11.7518 4.02802L14.8802 7.1555L13.2001 8.83544Z" fill="#F3AF5C"/>
</svg>
