<svg width="16" height="17" viewBox="0 0 16 17" fill="none" xmlns="http://www.w3.org/2000/svg">
<path d="M14 5.35196V8.90741C14 9.02528 13.9548 9.13832 13.8745 9.22167C13.7941 9.30501 13.6851 9.35184 13.5714 9.35184C13.4578 9.35184 13.3488 9.30501 13.2684 9.22167C13.188 9.13832 13.1429 9.02528 13.1429 8.90741V6.42471L8.73189 10.9996C8.69209 11.0409 8.64482 11.0737 8.5928 11.096C8.54077 11.1184 8.485 11.1299 8.42868 11.1299C8.37236 11.1299 8.31659 11.1184 8.26457 11.096C8.21254 11.0737 8.16528 11.0409 8.12547 10.9996L6.28587 9.09129L2.73201 12.7773C2.65159 12.8607 2.54253 12.9075 2.4288 12.9075C2.31508 12.9075 2.20601 12.8607 2.12559 12.7773C2.04518 12.6939 2 12.5808 2 12.4629C2 12.3449 2.04518 12.2318 2.12559 12.1484L5.98266 8.14854C6.02246 8.10722 6.06973 8.07444 6.12175 8.05207C6.17378 8.02971 6.22955 8.0182 6.28587 8.0182C6.34219 8.0182 6.39795 8.02971 6.44998 8.05207C6.50201 8.07444 6.54927 8.10722 6.58908 8.14854L8.42868 10.0568L12.537 5.79639H10.1429C10.0293 5.79639 9.92027 5.74957 9.83989 5.66622C9.75952 5.58288 9.71437 5.46983 9.71437 5.35196C9.71437 5.23409 9.75952 5.12105 9.83989 5.0377C9.92027 4.95436 10.0293 4.90753 10.1429 4.90753H13.5714C13.6851 4.90753 13.7941 4.95436 13.8745 5.0377C13.9548 5.12105 14 5.23409 14 5.35196Z" fill="#F85F18"/>
</svg>
