<svg width="16" height="17" viewBox="0 0 16 17" fill="none" xmlns="http://www.w3.org/2000/svg">
<path d="M14.7949 14.0545C14.8599 14.1196 14.9115 14.1968 14.9467 14.2818C14.9819 14.3667 15 14.4578 15 14.5498C15 14.6417 14.9819 14.7328 14.9467 14.8178C14.9115 14.9028 14.8599 14.98 14.7949 15.045C14.7298 15.11 14.6526 15.1616 14.5677 15.1968C14.4827 15.232 14.3916 15.2501 14.2996 15.2501C14.2077 15.2501 14.1166 15.232 14.0316 15.1968C13.9467 15.1616 13.8695 15.11 13.8044 15.045L8 9.23969L2.19557 15.045C2.06423 15.1763 1.88609 15.2501 1.70035 15.2501C1.51461 15.2501 1.33647 15.1763 1.20513 15.045C1.07379 14.9137 1 14.7355 1 14.5498C1 14.364 1.07379 14.1859 1.20513 14.0545L7.01043 8.25012L1.20513 2.44569C1.07379 2.31435 1 2.13622 1 1.95047C1 1.76473 1.07379 1.58659 1.20513 1.45525C1.33647 1.32391 1.51461 1.25012 1.70035 1.25012C1.88609 1.25012 2.06423 1.32391 2.19557 1.45525L8 7.26055L13.8044 1.45525C13.9358 1.32391 14.1139 1.25012 14.2996 1.25012C14.4854 1.25012 14.6635 1.32391 14.7949 1.45525C14.9262 1.58659 15 1.76473 15 1.95047C15 2.13622 14.9262 2.31435 14.7949 2.44569L8.98957 8.25012L14.7949 14.0545Z" fill="#121212"/>
</svg>
