<svg width="12" height="10" viewBox="0 0 12 10" fill="none" xmlns="http://www.w3.org/2000/svg">
<path d="M11.7076 0.700025C11.8005 0.792898 11.8743 0.903187 11.9246 1.02458C11.975 1.14598 12.0009 1.27611 12.0009 1.40753C12.0009 1.53894 11.975 1.66907 11.9246 1.79047C11.8743 1.91186 11.8005 2.02215 11.7076 2.11503L4.70757 9.11503C4.6147 9.208 4.50441 9.28176 4.38301 9.33209C4.26161 9.38241 4.13148 9.40831 4.00007 9.40831C3.86865 9.40831 3.73853 9.38241 3.61713 9.33209C3.49573 9.28176 3.38544 9.208 3.29257 9.11503L0.292567 6.11503C0.104927 5.92738 -0.000488281 5.67289 -0.000488281 5.40753C-0.000488281 5.14216 0.104927 4.88767 0.292567 4.70002C0.480208 4.51238 0.734704 4.40697 1.00007 4.40697C1.26543 4.40697 1.51993 4.51238 1.70757 4.70002L4.00007 6.99378L10.2926 0.700025C10.3854 0.607048 10.4957 0.53329 10.6171 0.482965C10.7385 0.432641 10.8687 0.406738 11.0001 0.406738C11.1315 0.406738 11.2616 0.432641 11.383 0.482965C11.5044 0.53329 11.6147 0.607048 11.7076 0.700025Z" fill="#5C8BDD"/>
</svg>
