<svg width="32" height="33" viewBox="0 0 32 33" fill="none" xmlns="http://www.w3.org/2000/svg">
<path d="M3.5 16.4456C3.50153 14.9821 4.08734 13.5791 5.12888 12.5442C6.17041 11.5094 7.5826 10.9274 9.05556 10.9259H13.662C13.9988 10.9063 19.8681 10.4958 25.4572 5.83851C25.7271 5.6133 26.0561 5.46929 26.4055 5.4234C26.7549 5.37751 27.1102 5.43165 27.4298 5.57945C27.7493 5.72726 28.0197 5.96259 28.2093 6.2578C28.3989 6.55302 28.4997 6.89586 28.5 7.24604V25.6451C28.5 25.9954 28.3993 26.3384 28.2098 26.6338C28.0203 26.9292 27.7499 27.1647 27.4303 27.3126C27.1107 27.4606 26.7553 27.5148 26.4058 27.469C26.0562 27.4231 25.7272 27.2791 25.4572 27.0538C21.0856 23.4108 16.5451 22.3666 14.6111 22.0746V25.7222C14.6115 26.0254 14.5365 26.324 14.3927 26.5914C14.2489 26.8588 14.0409 27.0868 13.787 27.2551L12.5139 28.098C12.2678 28.2612 11.986 28.3634 11.6919 28.3961C11.3979 28.4288 11.1003 28.3911 10.824 28.286C10.5476 28.1809 10.3007 28.0116 10.1038 27.7922C9.90684 27.5729 9.76569 27.3098 9.69213 27.0251L8.32986 21.9239C6.99337 21.7472 5.76692 21.0944 4.87854 20.0867C3.99015 19.0791 3.50028 17.7852 3.5 16.4456ZM26.6481 25.6371V7.24604C21.6933 11.3755 16.6215 12.4208 14.6111 12.6784V20.2082C16.6192 20.4704 21.6898 21.5134 26.6481 25.6371ZM11.4861 26.557V26.5697L12.7593 25.7268V21.9653H10.2593L11.4861 26.557ZM9.05556 20.1254H12.7593V12.7658H9.05556C8.07327 12.7658 7.13122 13.1535 6.43664 13.8436C5.74206 14.5337 5.35185 15.4696 5.35185 16.4456C5.35185 17.4215 5.74206 18.3575 6.43664 19.0476C7.13122 19.7377 8.07327 20.1254 9.05556 20.1254Z" fill="#F1A058"/>
</svg>
