<svg width="32" height="32" viewBox="0 0 32 32" fill="none" xmlns="http://www.w3.org/2000/svg">
<path d="M29 16.0004C29 15.2048 28.6839 14.4417 28.1213 13.8791C27.5587 13.3165 26.7956 13.0004 26 13.0004H17V11.8754C17.8583 11.6525 18.6185 11.1511 19.1613 10.4499C19.7042 9.74868 19.9992 8.88721 20 8.00041C20 4.50041 16.695 2.26166 16.555 2.16791C16.3907 2.05827 16.1975 1.99976 16 1.99976C15.8025 1.99976 15.6093 2.05827 15.445 2.16791C15.305 2.26166 12 4.50041 12 8.00041C12.0008 8.88721 12.2958 9.74868 12.8387 10.4499C13.3815 11.1511 14.1417 11.6525 15 11.8754V13.0004H6C5.20435 13.0004 4.44129 13.3165 3.87868 13.8791C3.31607 14.4417 3 15.2048 3 16.0004V18.9167C3.00103 20.0076 3.35148 21.0694 4 21.9467V27.0004C4 27.7961 4.31607 28.5591 4.87868 29.1217C5.44129 29.6843 6.20435 30.0004 7 30.0004H25C25.7956 30.0004 26.5587 29.6843 27.1213 29.1217C27.6839 28.5591 28 27.7961 28 27.0004V21.9467C28.6485 21.0694 28.999 20.0076 29 18.9167V16.0004ZM14 8.00041C14 6.30416 15.25 4.94291 16 4.27666C16.75 4.94291 18 6.30416 18 8.00041C18 8.53084 17.7893 9.03955 17.4142 9.41462C17.0391 9.78969 16.5304 10.0004 16 10.0004C15.4696 10.0004 14.9609 9.78969 14.5858 9.41462C14.2107 9.03955 14 8.53084 14 8.00041ZM5 16.0004C5 15.7352 5.10536 15.4808 5.29289 15.2933C5.48043 15.1058 5.73478 15.0004 6 15.0004H26C26.2652 15.0004 26.5196 15.1058 26.7071 15.2933C26.8946 15.4808 27 15.7352 27 16.0004V18.9167C27 20.5729 25.6925 21.9554 24.085 21.9992C23.684 22.0105 23.2849 21.9414 22.9111 21.7958C22.5374 21.6502 22.1966 21.4311 21.909 21.1515C21.6213 20.872 21.3927 20.5375 21.2366 20.168C21.0805 19.7986 21 19.4015 21 19.0004C21 18.7352 20.8946 18.4808 20.7071 18.2933C20.5196 18.1058 20.2652 18.0004 20 18.0004C19.7348 18.0004 19.4804 18.1058 19.2929 18.2933C19.1054 18.4808 19 18.7352 19 19.0004C19 19.7961 18.6839 20.5591 18.1213 21.1217C17.5587 21.6843 16.7956 22.0004 16 22.0004C15.2044 22.0004 14.4413 21.6843 13.8787 21.1217C13.3161 20.5591 13 19.7961 13 19.0004C13 18.7352 12.8946 18.4808 12.7071 18.2933C12.5196 18.1058 12.2652 18.0004 12 18.0004C11.7348 18.0004 11.4804 18.1058 11.2929 18.2933C11.1054 18.4808 11 18.7352 11 19.0004C11.0002 19.4016 10.9198 19.7988 10.7638 20.1684C10.6077 20.5381 10.3791 20.8726 10.0915 21.1524C9.80384 21.4321 9.46302 21.6512 9.08917 21.7969C8.71533 21.9426 8.31606 22.0118 7.915 22.0004C6.3075 21.9554 5 20.5729 5 18.9167V16.0004ZM25 28.0004H7C6.73478 28.0004 6.48043 27.8951 6.29289 27.7075C6.10536 27.52 6 27.2656 6 27.0004V23.5704C6.58536 23.8356 7.21762 23.9818 7.86 24.0004C8.52832 24.0212 9.19394 23.9067 9.81688 23.6637C10.4398 23.4208 11.0072 23.0544 11.485 22.5867C11.6715 22.4048 11.8437 22.2088 12 22.0004C12.4657 22.6214 13.0697 23.1254 13.7639 23.4725C14.4582 23.8197 15.2238 24.0004 16 24.0004C16.7762 24.0004 17.5418 23.8197 18.2361 23.4725C18.9303 23.1254 19.5343 22.6214 20 22.0004C20.1568 22.208 20.3294 22.4032 20.5163 22.5842C21.4465 23.4953 22.6978 24.004 24 24.0004C24.0475 24.0004 24.095 24.0004 24.1425 24.0004C24.784 23.9815 25.4154 23.8353 26 23.5704V27.0004C26 27.2656 25.8946 27.52 25.7071 27.7075C25.5196 27.8951 25.2652 28.0004 25 28.0004Z" fill="#343330"/>
</svg>
