<svg width="32" height="32" viewBox="0 0 32 32" fill="none" xmlns="http://www.w3.org/2000/svg">
<path d="M26 5H23V4C23 3.73478 22.8946 3.48043 22.7071 3.29289C22.5196 3.10536 22.2652 3 22 3C21.7348 3 21.4804 3.10536 21.2929 3.29289C21.1054 3.48043 21 3.73478 21 4V5H11V4C11 3.73478 10.8946 3.48043 10.7071 3.29289C10.5196 3.10536 10.2652 3 10 3C9.73478 3 9.48043 3.10536 9.29289 3.29289C9.10536 3.48043 9 3.73478 9 4V5H6C5.46957 5 4.96086 5.21071 4.58579 5.58579C4.21071 5.96086 4 6.46957 4 7V27C4 27.5304 4.21071 28.0391 4.58579 28.4142C4.96086 28.7893 5.46957 29 6 29H26C26.5304 29 27.0391 28.7893 27.4142 28.4142C27.7893 28.0391 28 27.5304 28 27V7C28 6.46957 27.7893 5.96086 27.4142 5.58579C27.0391 5.21071 26.5304 5 26 5ZM9 7V8C9 8.26522 9.10536 8.51957 9.29289 8.70711C9.48043 8.89464 9.73478 9 10 9C10.2652 9 10.5196 8.89464 10.7071 8.70711C10.8946 8.51957 11 8.26522 11 8V7H21V8C21 8.26522 21.1054 8.51957 21.2929 8.70711C21.4804 8.89464 21.7348 9 22 9C22.2652 9 22.5196 8.89464 22.7071 8.70711C22.8946 8.51957 23 8.26522 23 8V7H26V11H6V7H9ZM26 27H6V13H26V27ZM17.5 17.5C17.5 17.7967 17.412 18.0867 17.2472 18.3334C17.0824 18.58 16.8481 18.7723 16.574 18.8858C16.2999 18.9993 15.9983 19.0291 15.7074 18.9712C15.4164 18.9133 15.1491 18.7704 14.9393 18.5607C14.7296 18.3509 14.5867 18.0836 14.5288 17.7926C14.4709 17.5017 14.5006 17.2001 14.6142 16.926C14.7277 16.6519 14.92 16.4176 15.1666 16.2528C15.4133 16.088 15.7033 16 16 16C16.3978 16 16.7794 16.158 17.0607 16.4393C17.342 16.7206 17.5 17.1022 17.5 17.5ZM23 17.5C23 17.7967 22.912 18.0867 22.7472 18.3334C22.5824 18.58 22.3481 18.7723 22.074 18.8858C21.7999 18.9993 21.4983 19.0291 21.2074 18.9712C20.9164 18.9133 20.6491 18.7704 20.4393 18.5607C20.2296 18.3509 20.0867 18.0836 20.0288 17.7926C19.9709 17.5017 20.0007 17.2001 20.1142 16.926C20.2277 16.6519 20.42 16.4176 20.6666 16.2528C20.9133 16.088 21.2033 16 21.5 16C21.8978 16 22.2794 16.158 22.5607 16.4393C22.842 16.7206 23 17.1022 23 17.5ZM12 22.5C12 22.7967 11.912 23.0867 11.7472 23.3334C11.5824 23.58 11.3481 23.7723 11.074 23.8858C10.7999 23.9993 10.4983 24.0291 10.2074 23.9712C9.91639 23.9133 9.64912 23.7704 9.43934 23.5607C9.22956 23.3509 9.0867 23.0836 9.02882 22.7926C8.97094 22.5017 9.00065 22.2001 9.11418 21.926C9.22771 21.6519 9.41997 21.4176 9.66665 21.2528C9.91332 21.088 10.2033 21 10.5 21C10.8978 21 11.2794 21.158 11.5607 21.4393C11.842 21.7206 12 22.1022 12 22.5ZM17.5 22.5C17.5 22.7967 17.412 23.0867 17.2472 23.3334C17.0824 23.58 16.8481 23.7723 16.574 23.8858C16.2999 23.9993 15.9983 24.0291 15.7074 23.9712C15.4164 23.9133 15.1491 23.7704 14.9393 23.5607C14.7296 23.3509 14.5867 23.0836 14.5288 22.7926C14.4709 22.5017 14.5006 22.2001 14.6142 21.926C14.7277 21.6519 14.92 21.4176 15.1666 21.2528C15.4133 21.088 15.7033 21 16 21C16.3978 21 16.7794 21.158 17.0607 21.4393C17.342 21.7206 17.5 22.1022 17.5 22.5ZM23 22.5C23 22.7967 22.912 23.0867 22.7472 23.3334C22.5824 23.58 22.3481 23.7723 22.074 23.8858C21.7999 23.9993 21.4983 24.0291 21.2074 23.9712C20.9164 23.9133 20.6491 23.7704 20.4393 23.5607C20.2296 23.3509 20.0867 23.0836 20.0288 22.7926C19.9709 22.5017 20.0007 22.2001 20.1142 21.926C20.2277 21.6519 20.42 21.4176 20.6666 21.2528C20.9133 21.088 21.2033 21 21.5 21C21.8978 21 22.2794 21.158 22.5607 21.4393C22.842 21.7206 23 22.1022 23 22.5Z" fill="#121212"/>
</svg>
