<svg width="24" height="24" viewBox="0 0 24 24" fill="none" xmlns="http://www.w3.org/2000/svg">
<path d="M18.3447 13.1033L12.0001 19.448L5.93127 13.1033L9.24152 12.5516L9.24152 5.10356L14.4828 5.10356L15.0345 12.5516L18.3447 13.1033Z" fill="white"/>
<path d="M19.1304 12.6163C19.0887 12.5155 19.018 12.4293 18.9273 12.3687C18.8366 12.308 18.7299 12.2757 18.6208 12.2756H15.3105V5.10342C15.3105 4.81077 15.1943 4.53011 14.9874 4.32318C14.7804 4.11625 14.4998 4 14.2071 4H9.79345C9.50081 4 9.22015 4.11625 9.01322 4.32318C8.80629 4.53011 8.69004 4.81077 8.69004 5.10342V12.2756H5.37978C5.2706 12.2756 5.16385 12.3079 5.07304 12.3685C4.98223 12.4291 4.91145 12.5153 4.86966 12.6162C4.82786 12.717 4.81694 12.828 4.83826 12.9351C4.85959 13.0422 4.9122 13.1405 4.98945 13.2177L11.61 19.8382C11.6612 19.8895 11.722 19.9302 11.789 19.9579C11.856 19.9857 11.9278 20 12.0003 20C12.0728 20 12.1446 19.9857 12.2116 19.9579C12.2785 19.9302 12.3394 19.8895 12.3906 19.8382L19.0111 13.2177C19.0883 13.1405 19.1408 13.0421 19.162 12.9351C19.1832 12.8281 19.1723 12.7171 19.1304 12.6163ZM12.0003 18.6679L6.71147 13.3791H9.24174C9.38807 13.3791 9.5284 13.3209 9.63186 13.2175C9.73533 13.114 9.79345 12.9737 9.79345 12.8273V5.10342H14.2071V12.8273C14.2071 12.9737 14.2653 13.114 14.3687 13.2175C14.4722 13.3209 14.6125 13.3791 14.7588 13.3791H17.2891L12.0003 18.6679Z" fill="#121212"/>
</svg>
