<svg width="32" height="32" viewBox="0 0 32 32" fill="none" xmlns="http://www.w3.org/2000/svg">
<path d="M2.66675 16H4.00008" stroke="black" stroke-width="1.33333" stroke-linecap="round" stroke-linejoin="round"/>
<path d="M8 10.6666H5.33333C4.97971 10.6666 4.64057 10.8071 4.39052 11.0572C4.14048 11.3072 4 11.6463 4 12V20C4 20.3536 4.14048 20.6927 4.39052 20.9428C4.64057 21.1928 4.97971 21.3333 5.33333 21.3333H8" stroke="black" stroke-width="1.33333" stroke-linecap="round" stroke-linejoin="round"/>
<path d="M8 9.33333V22.6667C8 23.0203 8.14048 23.3594 8.39052 23.6095C8.64057 23.8595 8.97971 24 9.33333 24H10.6667C11.0203 24 11.3594 23.8595 11.6095 23.6095C11.8595 23.3594 12 23.0203 12 22.6667V9.33333C12 8.97971 11.8595 8.64057 11.6095 8.39052C11.3594 8.14048 11.0203 8 10.6667 8H9.33333C8.97971 8 8.64057 8.14048 8.39052 8.39052C8.14048 8.64057 8 8.97971 8 9.33333Z" stroke="black" stroke-width="1.33333" stroke-linecap="round" stroke-linejoin="round"/>
<path d="M12 16H20" stroke="black" stroke-width="1.33333" stroke-linecap="round" stroke-linejoin="round"/>
<path d="M20 9.33333V22.6667C20 23.0203 20.1405 23.3594 20.3905 23.6095C20.6406 23.8595 20.9797 24 21.3333 24H22.6667C23.0203 24 23.3594 23.8595 23.6095 23.6095C23.8595 23.3594 24 23.0203 24 22.6667V9.33333C24 8.97971 23.8595 8.64057 23.6095 8.39052C23.3594 8.14048 23.0203 8 22.6667 8H21.3333C20.9797 8 20.6406 8.14048 20.3905 8.39052C20.1405 8.64057 20 8.97971 20 9.33333Z" stroke="black" stroke-width="1.33333" stroke-linecap="round" stroke-linejoin="round"/>
<path d="M24 10.6666H26.6667C27.0203 10.6666 27.3594 10.8071 27.6095 11.0572C27.8595 11.3072 28 11.6463 28 12V20C28 20.3536 27.8595 20.6927 27.6095 20.9428C27.3594 21.1928 27.0203 21.3333 26.6667 21.3333H24" stroke="black" stroke-width="1.33333" stroke-linecap="round" stroke-linejoin="round"/>
<path d="M29.3333 16H28" stroke="black" stroke-width="1.33333" stroke-linecap="round" stroke-linejoin="round"/>
</svg>
