<svg width="32" height="32" viewBox="0 0 32 32" fill="none" xmlns="http://www.w3.org/2000/svg">
<path d="M25.0058 2.5H20.0058C19.7406 2.5 19.4862 2.60536 19.2987 2.79289C19.1112 2.98043 19.0058 3.23478 19.0058 3.5C19.0058 3.76522 19.1112 4.01957 19.2987 4.20711C19.4862 4.39464 19.7406 4.5 20.0058 4.5H22.592L19.4483 7.64375C18.5252 6.78349 17.4117 6.15378 16.1988 5.80605C14.9858 5.45833 13.7078 5.40245 12.4691 5.64298C11.2305 5.88352 10.0663 6.41364 9.0716 7.19005C8.07695 7.96646 7.28005 8.96714 6.746 10.1104C6.21195 11.2536 5.9559 12.5069 5.99876 13.768C6.04161 15.0291 6.38216 16.2621 6.99259 17.3665C7.60301 18.4708 8.466 19.4151 9.51108 20.1222C10.5561 20.8293 11.7537 21.2791 13.0058 21.435V23.5H10.0058C9.74058 23.5 9.48623 23.6054 9.29869 23.7929C9.11115 23.9804 9.0058 24.2348 9.0058 24.5C9.0058 24.7652 9.11115 25.0196 9.29869 25.2071C9.48623 25.3946 9.74058 25.5 10.0058 25.5H13.0058V28.5C13.0058 28.7652 13.1112 29.0196 13.2987 29.2071C13.4862 29.3946 13.7406 29.5 14.0058 29.5C14.271 29.5 14.5254 29.3946 14.7129 29.2071C14.9004 29.0196 15.0058 28.7652 15.0058 28.5V25.5H18.0058C18.271 25.5 18.5254 25.3946 18.7129 25.2071C18.9004 25.0196 19.0058 24.7652 19.0058 24.5C19.0058 24.2348 18.9004 23.9804 18.7129 23.7929C18.5254 23.6054 18.271 23.5 18.0058 23.5H15.0058V21.435C16.3462 21.2676 17.6223 20.763 18.7148 19.9685C19.8072 19.174 20.6804 18.1155 21.2528 16.8919C21.8251 15.6684 22.0779 14.3196 21.9875 12.9718C21.8971 11.6241 21.4664 10.3212 20.7358 9.185L24.0058 5.91375V8.5C24.0058 8.76522 24.1112 9.01957 24.2987 9.20711C24.4862 9.39464 24.7406 9.5 25.0058 9.5C25.271 9.5 25.5254 9.39464 25.7129 9.20711C25.9004 9.01957 26.0058 8.76522 26.0058 8.5V3.5C26.0058 3.23478 25.9004 2.98043 25.7129 2.79289C25.5254 2.60536 25.271 2.5 25.0058 2.5ZM14.0058 19.5C12.8191 19.5 11.6591 19.1481 10.6724 18.4888C9.68568 17.8295 8.91665 16.8925 8.46252 15.7961C8.00839 14.6997 7.88958 13.4933 8.12109 12.3295C8.3526 11.1656 8.92404 10.0965 9.76316 9.25736C10.6023 8.41824 11.6714 7.8468 12.8353 7.61529C13.9991 7.38378 15.2055 7.5026 16.3019 7.95672C17.3983 8.41085 18.3353 9.17988 18.9946 10.1666C19.6539 11.1533 20.0058 12.3133 20.0058 13.5C20.0041 15.0908 19.3715 16.616 18.2466 17.7408C17.1218 18.8657 15.5966 19.4983 14.0058 19.5Z" fill="#343330"/>
</svg>
