<svg width="32" height="32" viewBox="0 0 32 32" fill="none" xmlns="http://www.w3.org/2000/svg">
<path d="M28.8669 17.9471C28.5618 17.717 28.2119 17.5501 27.8387 17.4565C27.4655 17.3629 27.0768 17.3446 26.6961 17.4027C28.8867 15.2388 29.9949 13.0875 29.9949 10.9783C29.9949 7.95732 27.5115 5.50011 24.4589 5.50011C23.6489 5.49513 22.8476 5.66368 22.1113 5.99393C21.375 6.32418 20.7215 6.80812 20.1967 7.41178C19.6718 6.80812 19.0183 6.32418 18.282 5.99393C17.5457 5.66368 16.7444 5.49513 15.9344 5.50011C12.8818 5.50011 10.3985 7.95732 10.3985 10.9783C10.3985 12.2338 10.7764 13.4538 11.5719 14.7446C10.9204 14.9061 10.3258 15.2374 9.85139 15.7033L7.21288 18.2827H3.86632C3.37134 18.2827 2.89664 18.475 2.54663 18.8175C2.19663 19.16 2 19.6244 2 20.1087L2 24.6739C2 25.1582 2.19663 25.6227 2.54663 25.9652C2.89664 26.3076 3.37134 26.5 3.86632 26.5H15.9974C16.0737 26.5 16.1497 26.4908 16.2237 26.4726L23.689 24.6465C23.7366 24.6354 23.7831 24.6202 23.8278 24.6009L28.3618 22.7132L28.4132 22.6903C28.8489 22.4773 29.2221 22.1592 29.4974 21.7661C29.7728 21.3729 29.9414 20.9177 29.9873 20.4432C30.0331 19.9687 29.9548 19.4905 29.7596 19.0539C29.5644 18.6172 29.2588 18.2363 28.8716 17.9471H28.8669ZM15.9344 7.32618C16.6572 7.31584 17.3667 7.51664 17.9722 7.90292C18.5777 8.2892 19.0516 8.8434 19.3335 9.49465C19.4038 9.66211 19.5234 9.80534 19.6771 9.90615C19.8308 10.0069 20.0116 10.0608 20.1967 10.0608C20.3817 10.0608 20.5625 10.0069 20.7162 9.90615C20.8699 9.80534 20.9895 9.66211 21.0598 9.49465C21.3417 8.8434 21.8157 8.2892 22.4212 7.90292C23.0267 7.51664 23.7361 7.31584 24.4589 7.32618C26.4477 7.32618 28.1285 8.99819 28.1285 10.9783C28.1285 13.205 26.2867 15.7239 22.8025 18.2712L21.5089 18.5623C21.6225 18.093 21.626 17.6046 21.5192 17.1338C21.4124 16.6629 21.1981 16.2219 20.8923 15.8436C20.5865 15.4654 20.1971 15.1597 19.7535 14.9496C19.3098 14.7396 18.8232 14.6304 18.3303 14.6305H13.7438C12.7372 13.302 12.2648 12.1333 12.2648 10.9783C12.2648 8.99819 13.9456 7.32618 15.9344 7.32618ZM3.86632 20.1087H6.66581V24.6739H3.86632V20.1087ZM27.5955 21.0457L23.163 22.8924L15.8808 24.6739H8.53214V19.5735L11.1718 16.9918C11.3445 16.8215 11.55 16.6865 11.7765 16.5946C12.003 16.5027 12.2459 16.4558 12.4911 16.4566H18.3303C18.7016 16.4566 19.0576 16.6009 19.3201 16.8577C19.5826 17.1146 19.7301 17.4629 19.7301 17.8261C19.7301 18.1894 19.5826 18.5377 19.3201 18.7946C19.0576 19.0514 18.7016 19.1957 18.3303 19.1957H15.0643C14.8168 19.1957 14.5794 19.2919 14.4044 19.4631C14.2294 19.6343 14.1311 19.8666 14.1311 20.1087C14.1311 20.3509 14.2294 20.5831 14.4044 20.7543C14.5794 20.9256 14.8168 21.0218 15.0643 21.0218H18.7969C18.8672 21.0216 18.9372 21.0139 19.0057 20.9989L26.8209 19.2402L26.8571 19.2311C27.0957 19.1663 27.3503 19.1901 27.572 19.2979C27.7937 19.4058 27.9669 19.59 28.0581 19.8153C28.1493 20.0405 28.1521 20.2908 28.0661 20.5179C27.98 20.7451 27.8112 20.9331 27.592 21.0457H27.5955Z" fill="#121212"/>
</svg>
