<svg width="32" height="32" viewBox="0 0 32 32" fill="none" xmlns="http://www.w3.org/2000/svg">
<path d="M27.4138 14.0851L17.4138 4.08508C17.0387 3.71029 16.5302 3.49976 16 3.49976C15.4698 3.49976 14.9613 3.71029 14.5863 4.08508L4.58626 14.0851C4.39964 14.2703 4.25171 14.4908 4.15107 14.7337C4.05042 14.9766 3.99908 15.2371 4.00001 15.5001V27.5001C4.00001 27.7653 4.10537 28.0196 4.29291 28.2072C4.48044 28.3947 4.7348 28.5001 5.00001 28.5001H13C13.2652 28.5001 13.5196 28.3947 13.7071 28.2072C13.8947 28.0196 14 27.7653 14 27.5001V20.5001H18V27.5001C18 27.7653 18.1054 28.0196 18.2929 28.2072C18.4804 28.3947 18.7348 28.5001 19 28.5001H27C27.2652 28.5001 27.5196 28.3947 27.7071 28.2072C27.8947 28.0196 28 27.7653 28 27.5001V15.5001C28.0009 15.2371 27.9496 14.9766 27.849 14.7337C27.7483 14.4908 27.6004 14.2703 27.4138 14.0851ZM26 26.5001H20V19.5001C20 19.2349 19.8947 18.9805 19.7071 18.793C19.5196 18.6054 19.2652 18.5001 19 18.5001H13C12.7348 18.5001 12.4804 18.6054 12.2929 18.793C12.1054 18.9805 12 19.2349 12 19.5001V26.5001H6.00001V15.5001L16 5.50008L26 15.5001V26.5001Z" fill="#121212"/>
</svg>
