<svg width="32" height="32" viewBox="0 0 32 32" fill="none" xmlns="http://www.w3.org/2000/svg">
<path d="M19.9984 5.46509C19.9984 4.67396 19.7638 3.90061 19.3242 3.24281C18.8847 2.58501 18.26 2.07232 17.5291 1.76957C16.7982 1.46682 15.9939 1.38761 15.218 1.54195C14.4421 1.69629 13.7294 2.07725 13.1699 2.63666C12.6105 3.19607 12.2296 3.9088 12.0752 4.68473C11.9209 5.46065 12.0001 6.26492 12.3028 6.99582C12.6056 7.72673 13.1183 8.35144 13.7761 8.79097C14.4339 9.23049 15.2072 9.46509 15.9984 9.46509C17.0592 9.46509 18.0766 9.04366 18.8268 8.29352C19.5769 7.54337 19.9984 6.52596 19.9984 5.46509ZM15.9984 7.46509C15.6028 7.46509 15.2161 7.34779 14.8872 7.12803C14.5583 6.90827 14.302 6.59591 14.1506 6.23046C13.9992 5.865 13.9596 5.46287 14.0368 5.07491C14.114 4.68695 14.3045 4.33058 14.5842 4.05088C14.8639 3.77117 15.2202 3.58069 15.6082 3.50352C15.9962 3.42635 16.3983 3.46596 16.7637 3.61733C17.1292 3.76871 17.4415 4.02505 17.6613 4.35395C17.8811 4.68285 17.9984 5.06953 17.9984 5.46509C17.9984 5.99552 17.7877 6.50423 17.4126 6.8793C17.0375 7.25438 16.5288 7.46509 15.9984 7.46509ZM28.9359 11.4288C28.822 10.8688 28.5162 10.3661 28.0711 10.0075C27.6261 9.64899 27.0698 9.45713 26.4984 9.46509H5.49837C4.92847 9.46507 4.37567 9.65977 3.93157 10.0169C3.48747 10.3741 3.17872 10.8722 3.05648 11.4289C2.93424 11.9855 3.00585 12.5672 3.25945 13.0776C3.51304 13.5879 3.9334 13.9963 4.45087 14.2351H4.46712L10.8109 17.0288L8.18587 26.9938C7.9112 27.5989 7.88813 28.2882 8.12173 28.9103C8.35533 29.5323 8.82647 30.0361 9.43149 30.3107C10.0365 30.5854 10.7259 30.6084 11.3479 30.3748C11.9699 30.1412 12.4737 29.6701 12.7484 29.0651L15.9984 23.4563L19.2484 29.0651C19.5372 29.6443 20.0394 30.089 20.6494 30.3055C21.2593 30.522 21.9295 30.4935 22.5189 30.2261C23.1083 29.9586 23.5709 29.4729 23.8096 28.8713C24.0482 28.2696 24.0442 27.5988 23.7984 27.0001L21.1734 17.0351L27.5171 14.2413H27.5334C28.0591 14.0106 28.4874 13.6028 28.7436 13.0889C28.9999 12.5751 29.0679 11.9877 28.9359 11.4288ZM26.7109 12.4163L19.5946 15.5488C19.3768 15.6448 19.2003 15.8154 19.097 16.0299C18.9936 16.2443 18.9702 16.4886 19.0309 16.7188L21.8896 27.5901C21.9042 27.6483 21.9247 27.7048 21.9509 27.7588C21.9928 27.8485 22.0072 27.9487 21.9921 28.0466C21.9771 28.1445 21.9333 28.2357 21.8664 28.3086C21.7994 28.3816 21.7123 28.4331 21.6161 28.4565C21.5199 28.4799 21.4189 28.4742 21.3259 28.4401C21.2016 28.3945 21.1004 28.3014 21.0446 28.1813C21.032 28.1543 21.0178 28.128 21.0021 28.1026L16.8634 20.9651C16.7755 20.8136 16.6493 20.6878 16.4975 20.6003C16.3457 20.5129 16.1736 20.4669 15.9984 20.4669C15.8232 20.4669 15.6511 20.5129 15.4993 20.6003C15.3474 20.6878 15.2213 20.8136 15.1334 20.9651L10.9984 28.0963C10.9827 28.1218 10.9685 28.1481 10.9559 28.1751C10.9001 28.2952 10.7989 28.3882 10.6746 28.4338C10.5816 28.4679 10.4806 28.4736 10.3844 28.4502C10.2882 28.4268 10.2011 28.3754 10.1341 28.3024C10.0672 28.2294 10.0234 28.1382 10.0083 28.0403C9.99331 27.9424 10.0077 27.8423 10.0496 27.7526C10.0758 27.6986 10.0963 27.642 10.1109 27.5838L12.9659 16.7151C13.0266 16.4849 13.0031 16.2406 12.8998 16.0261C12.7964 15.8116 12.62 15.6411 12.4021 15.5451L5.28587 12.4163C5.18372 12.3676 5.10113 12.2856 5.0516 12.1839C5.00208 12.0821 4.98855 11.9665 5.01322 11.8561C5.0379 11.7456 5.09932 11.6468 5.18745 11.5758C5.27557 11.5048 5.38519 11.4657 5.49837 11.4651H26.4984C26.6119 11.4649 26.7221 11.5033 26.8108 11.574C26.8996 11.6447 26.9617 11.7436 26.9868 11.8543C27.012 11.9649 26.9988 12.0809 26.9493 12.183C26.8998 12.2852 26.8171 12.3675 26.7146 12.4163H26.7109Z" fill="#121212"/>
</svg>
