<svg width="32" height="32" viewBox="0 0 32 32" fill="none" xmlns="http://www.w3.org/2000/svg">
<path d="M27.9982 9.38533C27.7628 9.50723 27.4887 9.53067 27.236 9.45051C26.9833 9.37035 26.7728 9.19314 26.6507 8.95783C25.6962 7.07219 24.2515 5.47846 22.4682 4.34408C22.3571 4.27399 22.2609 4.18269 22.185 4.07541C22.1092 3.96812 22.0552 3.84695 22.0262 3.7188C21.9972 3.59066 21.9937 3.45805 22.0159 3.32856C22.0381 3.19906 22.0856 3.07521 22.1557 2.96408C22.2258 2.85295 22.3171 2.75671 22.4244 2.68087C22.5317 2.60502 22.6529 2.55104 22.781 2.52202C22.9092 2.49301 23.0418 2.48951 23.1713 2.51174C23.3008 2.53397 23.4246 2.58149 23.5357 2.65158C25.614 3.98225 27.3015 5.84104 28.4257 8.03783C28.5476 8.27323 28.5711 8.5474 28.4909 8.80007C28.4108 9.05275 28.2335 9.26326 27.9982 9.38533ZM4.46198 9.49783C4.64519 9.49776 4.82485 9.44735 4.98136 9.35212C5.13787 9.2569 5.26521 9.1205 5.34948 8.95783C6.30399 7.07219 7.74876 5.47846 9.53198 4.34408C9.75642 4.20252 9.91544 3.9776 9.97404 3.7188C10.0326 3.46 9.98604 3.18852 9.84448 2.96408C9.70292 2.73964 9.478 2.58063 9.2192 2.52202C8.9604 2.46342 8.68892 2.51002 8.46448 2.65158C6.38624 3.98225 4.69871 5.84104 3.57448 8.03783C3.49553 8.19023 3.45713 8.36039 3.46298 8.53192C3.46884 8.70346 3.51874 8.8706 3.60789 9.01727C3.69705 9.16393 3.82245 9.28518 3.97203 9.36935C4.12162 9.45351 4.29035 9.49776 4.46198 9.49783ZM27.7245 22.4903C27.9016 22.7941 27.9956 23.1393 27.9968 23.491C27.998 23.8427 27.9064 24.1884 27.7314 24.4934C27.5563 24.7985 27.3039 25.0519 26.9996 25.2283C26.6953 25.4046 26.3499 25.4976 25.9982 25.4978H20.8982C20.6687 26.6281 20.0555 27.6443 19.1625 28.3742C18.2695 29.1041 17.1516 29.5028 15.9982 29.5028C14.8449 29.5028 13.727 29.1041 12.834 28.3742C11.941 27.6443 11.3277 26.6281 11.0982 25.4978H5.99823C5.64676 25.4971 5.30168 25.4038 4.99774 25.2273C4.69381 25.0508 4.44176 24.7973 4.26698 24.4924C4.09221 24.1874 4.00088 23.8418 4.00219 23.4903C4.00351 23.1389 4.09743 22.794 4.27448 22.4903C5.40073 20.5466 5.99823 17.7828 5.99823 14.4978C5.99823 11.8457 7.0518 9.30213 8.92717 7.42676C10.8025 5.5514 13.3461 4.49783 15.9982 4.49783C18.6504 4.49783 21.1939 5.5514 23.0693 7.42676C24.9447 9.30213 25.9982 11.8457 25.9982 14.4978C25.9982 17.7816 26.5957 20.5453 27.7245 22.4903ZM18.8257 25.4978H13.1707C13.3779 26.0821 13.761 26.5878 14.2673 26.9455C14.7736 27.3032 15.3783 27.4952 15.9982 27.4952C16.6181 27.4952 17.2228 27.3032 17.7292 26.9455C18.2355 26.5878 18.6186 26.0821 18.8257 25.4978ZM25.9982 23.4978C24.6682 21.2141 23.9982 18.1866 23.9982 14.4978C23.9982 12.3761 23.1554 10.3413 21.6551 8.84098C20.1548 7.34069 18.12 6.49783 15.9982 6.49783C13.8765 6.49783 11.8417 7.34069 10.3414 8.84098C8.84109 10.3413 7.99823 12.3761 7.99823 14.4978C7.99823 18.1878 7.32573 21.2153 5.99823 23.4978H25.9982Z" fill="#343330"/>
</svg>
