<svg width="16" height="16" viewBox="0 0 16 16" fill="none" xmlns="http://www.w3.org/2000/svg">
<path d="M15 8C15 8.15471 14.9385 8.30308 14.8291 8.41248C14.7197 8.52188 14.5714 8.58333 14.4167 8.58333H8.58333V14.4167C8.58333 14.5714 8.52188 14.7197 8.41248 14.8291C8.30308 14.9385 8.15471 15 8 15C7.84529 15 7.69692 14.9385 7.58752 14.8291C7.47812 14.7197 7.41667 14.5714 7.41667 14.4167V8.58333H1.58333C1.42862 8.58333 1.28025 8.52188 1.17085 8.41248C1.06146 8.30308 1 8.15471 1 8C1 7.84529 1.06146 7.69692 1.17085 7.58752C1.28025 7.47812 1.42862 7.41667 1.58333 7.41667H7.41667V1.58333C7.41667 1.42862 7.47812 1.28025 7.58752 1.17085C7.69692 1.06146 7.84529 1 8 1C8.15471 1 8.30308 1.06146 8.41248 1.17085C8.52188 1.28025 8.58333 1.42862 8.58333 1.58333V7.41667H14.4167C14.5714 7.41667 14.7197 7.47812 14.8291 7.58752C14.9385 7.69692 15 7.84529 15 8Z" fill="#343330"/>
</svg>
