<svg width="24" height="24" viewBox="0 0 24 24" fill="none" xmlns="http://www.w3.org/2000/svg">
<path d="M12 3C10.22 3 8.47991 3.52784 6.99987 4.51677C5.51983 5.50571 4.36628 6.91131 3.68509 8.55585C3.0039 10.2004 2.82567 12.01 3.17294 13.7558C3.5202 15.5016 4.37737 17.1053 5.63604 18.364C6.89471 19.6226 8.49836 20.4798 10.2442 20.8271C11.99 21.1743 13.7996 20.9961 15.4442 20.3149C17.0887 19.6337 18.4943 18.4802 19.4832 17.0001C20.4722 15.5201 21 13.78 21 12C20.9975 9.61382 20.0485 7.3261 18.3612 5.63882C16.6739 3.95154 14.3862 3.00252 12 3ZM12 19.6154C10.4938 19.6154 9.02146 19.1687 7.76912 18.332C6.51678 17.4952 5.5407 16.3058 4.96431 14.9143C4.38792 13.5227 4.23711 11.9916 4.53095 10.5143C4.82479 9.03707 5.55008 7.68014 6.61511 6.61511C7.68014 5.55008 9.03708 4.82478 10.5143 4.53094C11.9916 4.2371 13.5228 4.38791 14.9143 4.9643C16.3058 5.54069 17.4952 6.51677 18.332 7.76912C19.1688 9.02146 19.6154 10.4938 19.6154 12C19.6131 14.019 18.81 15.9547 17.3824 17.3824C15.9547 18.81 14.019 19.6131 12 19.6154ZM16.1538 14.7692C16.1538 14.9528 16.0809 15.1289 15.9511 15.2588C15.8212 15.3886 15.6452 15.4615 15.4615 15.4615H8.53846C8.35485 15.4615 8.17876 15.3886 8.04893 15.2588C7.9191 15.1289 7.84616 14.9528 7.84616 14.7692C7.84616 14.5856 7.9191 14.4095 8.04893 14.2797C8.17876 14.1499 8.35485 14.0769 8.53846 14.0769H15.4615C15.6452 14.0769 15.8212 14.1499 15.9511 14.2797C16.0809 14.4095 16.1538 14.5856 16.1538 14.7692ZM7.84616 10.2692C7.84616 10.0638 7.90706 9.86307 8.02117 9.69229C8.13528 9.52152 8.29746 9.38841 8.48722 9.30982C8.67697 9.23122 8.88577 9.21065 9.08721 9.25072C9.28865 9.29079 9.47369 9.38969 9.61892 9.53493C9.76415 9.68016 9.86306 9.86519 9.90313 10.0666C9.94319 10.2681 9.92263 10.4769 9.84403 10.6666C9.76543 10.8564 9.63233 11.0186 9.46156 11.1327C9.29078 11.2468 9.09001 11.3077 8.88462 11.3077C8.6092 11.3077 8.34506 11.1983 8.15031 11.0035C7.95557 10.8088 7.84616 10.5446 7.84616 10.2692ZM16.1538 10.2692C16.1538 10.4746 16.0929 10.6754 15.9788 10.8462C15.8647 11.0169 15.7025 11.15 15.5128 11.2286C15.323 11.3072 15.1142 11.3278 14.9128 11.2877C14.7114 11.2477 14.5263 11.1488 14.3811 11.0035C14.2359 10.8583 14.1369 10.6733 14.0969 10.4718C14.0568 10.2704 14.0774 10.0616 14.156 9.87183C14.2346 9.68207 14.3677 9.51989 14.5384 9.40578C14.7092 9.29167 14.91 9.23077 15.1154 9.23077C15.3908 9.23077 15.6549 9.34018 15.8497 9.53493C16.0444 9.72968 16.1538 9.99381 16.1538 10.2692Z" fill="#121212"/>
</svg>
