<svg width="32" height="32" viewBox="0 0 32 32" fill="none" xmlns="http://www.w3.org/2000/svg">
<circle cx="7.26221" cy="16" r="2.335" stroke="black" stroke-width="1.33" stroke-linejoin="round"/>
<path d="M11.2622 26V6C11.2622 5.33333 11.5622 4 12.7622 4C13.9622 4 14.2622 5.33333 14.2622 6V12H23.2622C24.7622 15.8333 28.1965 23.3029 28.7622 25C29.2622 26.5 28.9932 27.1345 28.2622 27.5C27.2622 28 26.2622 27.5 25.7622 26.5C25.3622 25.7 23.2622 21.1667 22.2622 18.5C21.5955 20.8333 20.1622 25.7 19.7622 26.5C19.2622 27.5 18.2622 28 17.2622 27.5C16.4622 27.1 16.5955 26 16.7622 25.5L19.2622 18.5H14.2622V26C14.2622 26.6667 13.9622 28 12.7622 28C11.5622 28 11.2622 26.6667 11.2622 26Z" stroke="black" stroke-width="1.33" stroke-linejoin="round"/>
</svg>
