<svg width="32" height="32" viewBox="0 0 32 32" fill="none" xmlns="http://www.w3.org/2000/svg">
<path d="M28.9775 26C28.9775 26.2652 28.8722 26.5196 28.6846 26.7071C28.4971 26.8946 28.2428 27 27.9775 27H3.97754C3.71232 27 3.45797 26.8946 3.27043 26.7071C3.0829 26.5196 2.97754 26.2652 2.97754 26V6C2.97754 5.73478 3.0829 5.48043 3.27043 5.29289C3.45797 5.10536 3.71232 5 3.97754 5C4.24276 5 4.49711 5.10536 4.68465 5.29289C4.87218 5.48043 4.97754 5.73478 4.97754 6V17.7962L11.3188 12.25C11.4913 12.0989 11.7106 12.0118 11.9397 12.0031C12.1689 11.9945 12.3941 12.0649 12.5775 12.2025L19.9288 17.7162L27.3188 11.25C27.4157 11.1541 27.5312 11.079 27.6581 11.0293C27.7851 10.9797 27.9209 10.9565 28.0572 10.9613C28.1934 10.9661 28.3273 10.9986 28.4505 11.057C28.5737 11.1154 28.6837 11.1983 28.7736 11.3008C28.8636 11.4032 28.9317 11.523 28.9737 11.6527C29.0157 11.7824 29.0307 11.9193 29.0178 12.055C29.005 12.1908 28.9645 12.3224 28.8989 12.4419C28.8333 12.5615 28.7439 12.6663 28.6363 12.75L20.6363 19.75C20.4637 19.9011 20.2445 19.9882 20.0153 19.9969C19.7862 20.0055 19.561 19.9351 19.3775 19.7975L12.0263 14.2863L4.97754 20.4538V25H27.9775C28.2428 25 28.4971 25.1054 28.6846 25.2929C28.8722 25.4804 28.9775 25.7348 28.9775 26Z" fill="#121212"/>
</svg>
