<svg width="24" height="24" viewBox="0 0 24 24" fill="none" xmlns="http://www.w3.org/2000/svg">
<path d="M5.42822 11.1425L11.9995 4.57129L18.285 11.1425L14.8565 11.7139V19.428H9.42811L8.8567 11.7139L5.42822 11.1425Z" fill="white"/>
<path d="M19.2613 11.0245L12.4044 4.16759C12.3513 4.11446 12.2883 4.07231 12.2189 4.04356C12.1496 4.0148 12.0752 4 12.0001 4C11.925 4 11.8507 4.0148 11.7813 4.04356C11.7119 4.07231 11.6489 4.11446 11.5958 4.16759L4.73888 11.0245C4.65887 11.1045 4.60438 11.2063 4.58229 11.3172C4.56021 11.4281 4.57152 11.5431 4.61481 11.6475C4.6581 11.752 4.73141 11.8413 4.82546 11.9041C4.91951 11.9668 5.03007 12.0003 5.14315 12.0002H8.57163V18.8572C8.57163 19.1603 8.69203 19.451 8.90635 19.6653C9.12067 19.8796 9.41136 20 9.71445 20H14.2858C14.5888 20 14.8795 19.8796 15.0939 19.6653C15.3082 19.451 15.4286 19.1603 15.4286 18.8572V12.0002H18.8571C18.9701 12.0003 19.0807 11.9668 19.1747 11.9041C19.2688 11.8413 19.3421 11.752 19.3854 11.6475C19.4287 11.5431 19.44 11.4281 19.4179 11.3172C19.3958 11.2063 19.3413 11.1045 19.2613 11.0245ZM14.8572 10.8574C14.7056 10.8574 14.5603 10.9176 14.4531 11.0248C14.346 11.1319 14.2858 11.2773 14.2858 11.4288V18.8572H9.71445V11.4288C9.71445 11.2773 9.65425 11.1319 9.54709 11.0248C9.43993 10.9176 9.29459 10.8574 9.14304 10.8574H6.5224L12.0001 5.3797L17.4778 10.8574H14.8572Z" fill="#121212"/>
</svg>
