<svg width="44" height="44" viewBox="0 0 44 44" fill="none" xmlns="http://www.w3.org/2000/svg">
<path d="M0 22C0 9.84974 9.84974 0 22 0C34.1503 0 44 9.84974 44 22C44 34.1503 34.1503 44 22 44C9.84974 44 0 34.1503 0 22Z" fill="#F3AF5C"/>
<path d="M30 17.5C30 21.0638 26.9412 24.0138 23 24.445V25.5C23 25.7652 22.8946 26.0196 22.7071 26.2071C22.5196 26.3946 22.2652 26.5 22 26.5C21.7348 26.5 21.4804 26.3946 21.2929 26.2071C21.1054 26.0196 21 25.7652 21 25.5V23.5C21 23.2348 21.1054 22.9804 21.2929 22.7929C21.4804 22.6054 21.7348 22.5 22 22.5C25.3088 22.5 28 20.2575 28 17.5C28 14.7425 25.3088 12.5 22 12.5C18.6912 12.5 16 14.7425 16 17.5C16 17.7652 15.8946 18.0196 15.7071 18.2071C15.5196 18.3946 15.2652 18.5 15 18.5C14.7348 18.5 14.4804 18.3946 14.2929 18.2071C14.1054 18.0196 14 17.7652 14 17.5C14 13.64 17.5887 10.5 22 10.5C26.4113 10.5 30 13.64 30 17.5ZM22 29.5C21.6044 29.5 21.2178 29.6173 20.8889 29.8371C20.56 30.0568 20.3036 30.3692 20.1522 30.7346C20.0009 31.1001 19.9613 31.5022 20.0384 31.8902C20.1156 32.2781 20.3061 32.6345 20.5858 32.9142C20.8655 33.1939 21.2219 33.3844 21.6098 33.4616C21.9978 33.5387 22.3999 33.4991 22.7654 33.3478C23.1308 33.1964 23.4432 32.94 23.6629 32.6111C23.8827 32.2822 24 31.8956 24 31.5C24 30.9696 23.7893 30.4609 23.4142 30.0858C23.0391 29.7107 22.5304 29.5 22 29.5Z" fill="white"/>
</svg>
