<svg width="76" height="26" viewBox="0 0 76 26" fill="none" xmlns="http://www.w3.org/2000/svg">
<rect width="24" height="4" transform="translate(0 21.3384)" fill="#E4E7EC"/>
<path d="M29.36 3.62986L30.212 3.88186C29.948 4.56186 29.64 5.23387 29.288 5.89787C28.944 6.55387 28.568 7.17387 28.16 7.75787C27.752 8.34186 27.332 8.85786 26.9 9.30587C26.868 9.23387 26.82 9.14187 26.756 9.02987C26.7 8.91787 26.636 8.80587 26.564 8.69386C26.5 8.57386 26.44 8.48187 26.384 8.41787C26.776 8.02586 27.156 7.57386 27.524 7.06187C27.892 6.54987 28.232 6.00186 28.544 5.41786C28.864 4.82586 29.136 4.22986 29.36 3.62986ZM28.088 6.71386L28.94 5.86186V5.87386V14.5979H28.088V6.71386ZM30.476 4.43386H31.328V7.97386C31.328 8.43787 31.312 8.94587 31.28 9.49787C31.256 10.0499 31.2 10.6179 31.112 11.2019C31.024 11.7779 30.9 12.3419 30.74 12.8939C30.58 13.4379 30.364 13.9379 30.092 14.3939C30.036 14.3379 29.964 14.2779 29.876 14.2139C29.788 14.1499 29.696 14.0899 29.6 14.0339C29.512 13.9779 29.432 13.9339 29.36 13.9019C29.616 13.4779 29.82 13.0139 29.972 12.5099C30.124 11.9979 30.232 11.4779 30.296 10.9499C30.368 10.4219 30.416 9.90586 30.44 9.40187C30.464 8.88986 30.476 8.41386 30.476 7.97386V4.43386ZM31.004 5.84986H36.908V8.48986H31.004V7.75787H36.032V6.59386H31.004V5.84986ZM31.316 9.32986H36.884V10.0739H32.084V14.5979H31.316V9.32986ZM36.476 9.32986H37.268V13.6379C37.268 13.8299 37.248 13.9779 37.208 14.0819C37.168 14.1939 37.092 14.2859 36.98 14.3579C36.86 14.4139 36.712 14.4499 36.536 14.4659C36.36 14.4819 36.144 14.4899 35.888 14.4899C35.872 14.3859 35.84 14.2659 35.792 14.1299C35.752 13.9939 35.708 13.8699 35.66 13.7579C35.828 13.7659 35.972 13.7699 36.092 13.7699C36.22 13.7699 36.308 13.7699 36.356 13.7699C36.436 13.7699 36.476 13.7259 36.476 13.6379V9.32986ZM31.676 11.5379H36.884V12.2819H31.676V11.5379ZM33.128 9.60586H33.788V14.3459H33.128V9.60586ZM34.784 9.60586H35.432V14.2379H34.784V9.60586ZM36.32 3.71386L36.944 4.39787C36.392 4.51786 35.764 4.62986 35.06 4.73387C34.364 4.82986 33.636 4.90986 32.876 4.97386C32.124 5.03786 31.4 5.08986 30.704 5.12986C30.688 5.03386 30.656 4.91786 30.608 4.78187C30.568 4.63787 30.524 4.52186 30.476 4.43386C30.988 4.39386 31.516 4.35386 32.06 4.31386C32.604 4.26586 33.136 4.20986 33.656 4.14586C34.176 4.08186 34.664 4.01386 35.12 3.94186C35.576 3.86986 35.976 3.79386 36.32 3.71386ZM38.708 4.82986H49.244V5.62187H38.708V4.82986ZM41.432 6.95387V8.04586H46.628V6.95387H41.432ZM40.532 6.29386H47.564V8.70587H40.532V6.29386ZM39.152 9.37786H48.572V10.1339H40.016V14.6099H39.152V9.37786ZM47.96 9.37786H48.86V13.6619C48.86 13.8859 48.828 14.0499 48.764 14.1539C48.7 14.2659 48.588 14.3539 48.428 14.4179C48.268 14.4739 48.056 14.5059 47.792 14.5139C47.528 14.5219 47.204 14.5259 46.82 14.5259C46.796 14.4219 46.756 14.3059 46.7 14.1779C46.644 14.0499 46.588 13.9379 46.532 13.8419C46.708 13.8499 46.88 13.8539 47.048 13.8539C47.216 13.8539 47.364 13.8539 47.492 13.8539C47.62 13.8539 47.708 13.8539 47.756 13.8539C47.892 13.8459 47.96 13.7859 47.96 13.6739V9.37786ZM43.292 3.74986L44.156 3.54586C44.268 3.79386 44.376 4.06986 44.48 4.37386C44.592 4.67786 44.672 4.92586 44.72 5.11787L43.796 5.39387C43.748 5.17787 43.672 4.91386 43.568 4.60186C43.472 4.28986 43.38 4.00586 43.292 3.74986ZM41.852 10.8419H46.472V13.3139H41.852V12.6419H45.656V11.5139H41.852V10.8419ZM41.372 10.8419H42.224V13.9139H41.372V10.8419Z" fill="#FC6B6C"/>
<rect width="24" height="4" transform="translate(26 21.3384)" fill="#FC6B6C"/>
<rect width="24" height="4" transform="translate(52 21.3384)" fill="#E4E7EC"/>
</svg>
