<svg width="102" height="26" viewBox="0 0 102 26" fill="none" xmlns="http://www.w3.org/2000/svg">
<rect width="24" height="4" transform="translate(0 21.3384)" fill="#E4E7EC"/>
<path d="M32.648 4.54186H33.332V8.17787H32.648V4.54186ZM34.412 4.54186H35.096V8.17787H34.412V4.54186ZM35.12 12.2099L35.78 11.8379C35.996 12.0379 36.208 12.2579 36.416 12.4979C36.624 12.7299 36.816 12.9619 36.992 13.1939C37.168 13.4179 37.308 13.6219 37.412 13.8059L36.716 14.2379C36.62 14.0539 36.484 13.8419 36.308 13.6019C36.132 13.3619 35.94 13.1219 35.732 12.8819C35.532 12.6339 35.328 12.4099 35.12 12.2099ZM31.772 11.8499L32.576 12.0779C32.352 12.4859 32.08 12.8859 31.76 13.2779C31.448 13.6699 31.132 14.0059 30.812 14.2859C30.756 14.2379 30.684 14.1819 30.596 14.1179C30.516 14.0619 30.432 14.0019 30.344 13.9379C30.256 13.8819 30.176 13.8339 30.104 13.7939C30.432 13.5459 30.744 13.2539 31.04 12.9179C31.336 12.5739 31.58 12.2179 31.772 11.8499ZM30.536 4.14586H37.268V4.88987H30.536V4.14586ZM31.328 9.13787H36.512V9.86987H31.328V9.13787ZM30.56 10.6979H37.34V11.4419H30.56V10.6979ZM31.568 6.37786V7.81787H36.272V6.37786H31.568ZM30.812 5.68186H37.076V8.51386H30.812V5.68186ZM33.452 11.0819H34.268V14.6099H33.452V11.0819ZM26.684 5.89787H30.536V6.73786H26.684V5.89787ZM28.388 3.58186H29.204V14.6099H28.388V3.58186ZM28.328 6.43786L28.856 6.65386C28.76 7.12586 28.64 7.61786 28.496 8.12986C28.352 8.63386 28.192 9.13386 28.016 9.62986C27.84 10.1259 27.652 10.5899 27.452 11.0219C27.26 11.4459 27.06 11.8099 26.852 12.1139C26.828 12.0259 26.788 11.9299 26.732 11.8259C26.676 11.7139 26.616 11.6059 26.552 11.5019C26.496 11.3979 26.44 11.3099 26.384 11.2379C26.584 10.9739 26.78 10.6539 26.972 10.2779C27.164 9.90187 27.344 9.49786 27.512 9.06587C27.688 8.62586 27.844 8.18186 27.98 7.73387C28.124 7.28587 28.24 6.85386 28.328 6.43786ZM29.168 7.31386C29.232 7.39386 29.332 7.53786 29.468 7.74586C29.612 7.94586 29.76 8.16987 29.912 8.41787C30.072 8.65787 30.216 8.88187 30.344 9.08987C30.48 9.29787 30.576 9.44587 30.632 9.53387L30.08 10.1699C30.016 10.0259 29.924 9.83786 29.804 9.60586C29.684 9.37387 29.556 9.12987 29.42 8.87387C29.292 8.61786 29.164 8.38186 29.036 8.16586C28.908 7.94986 28.808 7.78187 28.736 7.66187L29.168 7.31386ZM39.38 4.26586L39.836 3.64186C40.052 3.71386 40.28 3.80586 40.52 3.91786C40.768 4.02186 41.004 4.12986 41.228 4.24186C41.452 4.35386 41.632 4.45786 41.768 4.55386L41.3 5.26186C41.156 5.15786 40.976 5.04586 40.76 4.92586C40.544 4.80586 40.316 4.68986 40.076 4.57786C39.836 4.45786 39.604 4.35386 39.38 4.26586ZM38.48 6.30586L38.924 5.68186C39.14 5.75387 39.368 5.83786 39.608 5.93386C39.848 6.02986 40.08 6.12986 40.304 6.23387C40.528 6.33787 40.708 6.43787 40.844 6.53386L40.388 7.22987C40.252 7.14186 40.076 7.04186 39.86 6.92986C39.644 6.80986 39.412 6.69786 39.164 6.59386C38.924 6.48186 38.696 6.38586 38.48 6.30586ZM38.804 10.1219C39.02 9.92987 39.26 9.70187 39.524 9.43786C39.796 9.16587 40.072 8.87787 40.352 8.57386C40.64 8.26987 40.912 7.96587 41.168 7.66187L41.66 8.26187C41.316 8.67786 40.952 9.11386 40.568 9.56986C40.184 10.0179 39.804 10.4339 39.428 10.8179L38.804 10.1219ZM38.636 11.4419H49.412V12.2699H38.636V11.4419ZM43.508 10.5779H44.432V14.6339H43.508V10.5779ZM43.244 3.50987L44.096 3.77386C43.896 4.20586 43.66 4.63386 43.388 5.05787C43.116 5.48186 42.824 5.87786 42.512 6.24586C42.208 6.60587 41.9 6.92987 41.588 7.21787C41.54 7.16186 41.472 7.09786 41.384 7.02586C41.296 6.95386 41.204 6.88186 41.108 6.80986C41.02 6.73786 40.94 6.68586 40.868 6.65386C41.348 6.26186 41.796 5.78987 42.212 5.23786C42.636 4.68586 42.98 4.10986 43.244 3.50987ZM42.596 9.50987H49.076V10.2539H42.596V9.50987ZM42.716 6.47386H48.5V7.08586H42.716V6.47386ZM42.716 7.97386H48.524V8.59786H42.716V7.97386ZM45.356 5.18986H46.208V9.92987H45.356V5.18986ZM44.972 3.86986L45.836 3.64186C45.964 3.85786 46.092 4.09786 46.22 4.36186C46.348 4.61786 46.444 4.84186 46.508 5.03386L45.608 5.30986C45.544 5.11786 45.452 4.88586 45.332 4.61387C45.212 4.34186 45.092 4.09386 44.972 3.86986ZM43.172 4.86586H48.884V5.58586H43.172V10.7819H42.296V5.42986L42.848 4.86586H43.172Z" fill="#009F99"/>
<rect width="24" height="4" transform="translate(26 21.3384)" fill="#009F99"/>
<rect width="24" height="4" transform="translate(52 21.3384)" fill="#E4E7EC"/>
<rect width="24" height="4" transform="translate(78 21.3384)" fill="#E4E7EC"/>
</svg>
