<svg width="32" height="32" viewBox="0 0 32 32" fill="none" xmlns="http://www.w3.org/2000/svg">
<path d="M22.3446 16.8535L15.9999 23.1982L9.93115 16.8535L13.2414 16.3018L13.2414 8.85374L18.4826 8.85374L19.0343 16.3018L22.3446 16.8535Z" fill="#009F99" fill-opacity="0.5"/>
<path d="M23.1303 16.3664C23.0886 16.2656 23.0179 16.1794 22.9272 16.1187C22.8365 16.0581 22.7298 16.0257 22.6207 16.0257H19.3104V8.85348C19.3104 8.56083 19.1942 8.28018 18.9872 8.07324C18.7803 7.86631 18.4997 7.75006 18.207 7.75006H13.7933C13.5007 7.75006 13.22 7.86631 13.0131 8.07324C12.8062 8.28018 12.6899 8.56083 12.6899 8.85348V16.0257H9.37966C9.27048 16.0256 9.16373 16.0579 9.07292 16.1185C8.98211 16.1792 8.91133 16.2654 8.86954 16.3662C8.82774 16.4671 8.81682 16.5781 8.83814 16.6852C8.85946 16.7922 8.91208 16.8906 8.98932 16.9677L15.6098 23.5883C15.6611 23.6395 15.7219 23.6802 15.7889 23.708C15.8559 23.7358 15.9277 23.7501 16.0002 23.7501C16.0727 23.7501 16.1445 23.7358 16.2114 23.708C16.2784 23.6802 16.3393 23.6395 16.3905 23.5883L23.011 16.9677C23.0881 16.8905 23.1407 16.7922 23.1619 16.6852C23.1831 16.5781 23.1721 16.4672 23.1303 16.3664ZM16.0002 22.4179L10.7113 17.1291H13.2416C13.3879 17.1291 13.5283 17.071 13.6317 16.9675C13.7352 16.8641 13.7933 16.7237 13.7933 16.5774V8.85348H18.207V16.5774C18.207 16.7237 18.2651 16.8641 18.3686 16.9675C18.4721 17.071 18.6124 17.1291 18.7587 17.1291H21.289L16.0002 22.4179Z" fill="#009F99"/>
</svg>
