<svg width="18" height="18" viewBox="0 0 18 18" fill="none" xmlns="http://www.w3.org/2000/svg">
<path d="M2.17108 9.3891L7.42091 14.3388C7.53036 14.442 7.67881 14.5 7.8336 14.5C7.98839 14.5 8.13684 14.442 8.2463 14.3388C8.35575 14.2356 8.41724 14.0957 8.41724 13.9497C8.41724 13.8038 8.35575 13.6638 8.2463 13.5606L3.99175 9.54997H15.4167C15.5714 9.54997 15.7198 9.49203 15.8292 9.38889C15.9385 9.28575 16 9.14586 16 9C16 8.85414 15.9385 8.71425 15.8292 8.61111C15.7198 8.50797 15.5714 8.45003 15.4167 8.45003H3.99175L8.2463 4.43938C8.35575 4.33618 8.41724 4.19622 8.41724 4.05028C8.41724 3.90433 8.35575 3.76437 8.2463 3.66117C8.13684 3.55798 7.98839 3.5 7.8336 3.5C7.67881 3.5 7.53036 3.55798 7.42091 3.66117L2.17108 8.6109C2.11684 8.66197 2.07382 8.72263 2.04446 8.78939C2.01511 8.85616 2 8.92772 2 9C2 9.07227 2.01511 9.14384 2.04446 9.21061C2.07382 9.27737 2.11684 9.33803 2.17108 9.3891Z" fill="#121212"/>
</svg>
