<svg width="32" height="32" viewBox="0 0 32 32" fill="none" xmlns="http://www.w3.org/2000/svg">
<path d="M21.7076 25.2926C21.8005 25.3855 21.8742 25.4958 21.9244 25.6172C21.9747 25.7386 22.0006 25.8687 22.0006 26.0001C22.0006 26.1315 21.9747 26.2616 21.9244 26.383C21.8742 26.5044 21.8005 26.6147 21.7076 26.7076C21.6146 26.8005 21.5043 26.8742 21.383 26.9245C21.2616 26.9747 21.1314 27.0006 21.0001 27.0006C20.8687 27.0006 20.7386 26.9747 20.6172 26.9245C20.4958 26.8742 20.3855 26.8005 20.2926 26.7076L10.2926 16.7076C10.1996 16.6147 10.1258 16.5044 10.0755 16.383C10.0252 16.2616 9.99927 16.1315 9.99927 16.0001C9.99927 15.8687 10.0252 15.7385 10.0755 15.6171C10.1258 15.4957 10.1996 15.3854 10.2926 15.2926L20.2926 5.29257C20.4802 5.10493 20.7347 4.99951 21.0001 4.99951C21.2654 4.99951 21.5199 5.10493 21.7076 5.29257C21.8952 5.48021 22.0006 5.7347 22.0006 6.00007C22.0006 6.26543 21.8952 6.51993 21.7076 6.70757L12.4138 16.0001L21.7076 25.2926Z" fill="#121212"/>
</svg>
