<svg width="37" height="36" viewBox="0 0 37 36" fill="none" xmlns="http://www.w3.org/2000/svg">
<path d="M3.05469 14.4003V34.5598L22.4947 34.0198C22.4947 34.0198 34.9229 30.4198 35.4547 18.7203C35.9865 7.02089 26.8147 1.44025 16.7347 1.44025C6.65469 1.44025 3.05469 14.4003 3.05469 14.4003Z" fill="#F3AF5C"/>
<path d="M18.895 0C14.1227 0.00524088 9.54741 1.90335 6.17289 5.27787C2.79837 8.65239 0.90026 13.2277 0.89502 18V33.12C0.89502 33.8838 1.19845 34.6164 1.73855 35.1565C2.27866 35.6966 3.0112 36 3.77502 36H18.895C23.6689 36 28.2473 34.1036 31.6229 30.7279C34.9986 27.3523 36.895 22.7739 36.895 18C36.895 13.2261 34.9986 8.64773 31.6229 5.27208C28.2473 1.89642 23.6689 0 18.895 0ZM18.895 33.12H3.77502V18C3.77502 15.0095 4.66179 12.0863 6.3232 9.59978C7.98461 7.11331 10.346 5.17534 13.1088 4.03094C15.8717 2.88654 18.9118 2.58712 21.8448 3.17053C24.7778 3.75394 27.4719 5.19398 29.5865 7.30855C31.701 9.42312 33.1411 12.1172 33.7245 15.0502C34.3079 17.9832 34.0085 21.0234 32.8641 23.7862C31.7197 26.549 29.7817 28.9104 27.2952 30.5718C24.8088 32.2332 21.8855 33.12 18.895 33.12ZM21.055 18.72C21.055 19.1472 20.9283 19.5648 20.691 19.92C20.4537 20.2752 20.1163 20.5521 19.7216 20.7156C19.3269 20.8791 18.8926 20.9218 18.4736 20.8385C18.0546 20.7552 17.6698 20.5494 17.3677 20.2474C17.0656 19.9453 16.8599 19.5604 16.7765 19.1414C16.6932 18.7224 16.736 18.2881 16.8994 17.8934C17.0629 17.4987 17.3398 17.1614 17.695 16.924C18.0502 16.6867 18.4678 16.56 18.895 16.56C19.4679 16.56 20.0173 16.7876 20.4224 17.1927C20.8274 17.5977 21.055 18.1471 21.055 18.72ZM13.135 18.72C13.135 19.1472 13.0083 19.5648 12.771 19.92C12.5337 20.2752 12.1963 20.5521 11.8016 20.7156C11.4069 20.8791 10.9726 20.9218 10.5536 20.8385C10.1346 20.7552 9.74975 20.5494 9.44767 20.2474C9.14559 19.9453 8.93987 19.5604 8.85652 19.1414C8.77318 18.7224 8.81596 18.2881 8.97944 17.8934C9.14293 17.4987 9.41978 17.1614 9.77499 16.924C10.1302 16.6867 10.5478 16.56 10.975 16.56C11.5479 16.56 12.0973 16.7876 12.5024 17.1927C12.9075 17.5977 13.135 18.1471 13.135 18.72ZM28.975 18.72C28.975 19.1472 28.8483 19.5648 28.611 19.92C28.3737 20.2752 28.0363 20.5521 27.6416 20.7156C27.2469 20.8791 26.8126 20.9218 26.3936 20.8385C25.9746 20.7552 25.5898 20.5494 25.2877 20.2474C24.9856 19.9453 24.7799 19.5604 24.6965 19.1414C24.6132 18.7224 24.656 18.2881 24.8194 17.8934C24.9829 17.4987 25.2598 17.1614 25.615 16.924C25.9702 16.6867 26.3878 16.56 26.815 16.56C27.3879 16.56 27.9373 16.7876 28.3424 17.1927C28.7475 17.5977 28.975 18.1471 28.975 18.72Z" fill="#121212"/>
</svg>
