<svg width="20" height="21" viewBox="0 0 20 21" fill="none" xmlns="http://www.w3.org/2000/svg">
<path d="M14.3904 7.21381C14.4619 7.28525 14.5186 7.37009 14.5574 7.46347C14.5961 7.55685 14.616 7.65695 14.616 7.75804C14.616 7.85913 14.5961 7.95923 14.5574 8.05261C14.5186 8.14599 14.4619 8.23083 14.3904 8.30227L9.00577 13.6869C8.93433 13.7584 8.84949 13.8151 8.75611 13.8539C8.66273 13.8926 8.56263 13.9125 8.46154 13.9125C8.36045 13.9125 8.26035 13.8926 8.16697 13.8539C8.07359 13.8151 7.98875 13.7584 7.91731 13.6869L5.60962 11.3792C5.46528 11.2349 5.38419 11.0391 5.38419 10.835C5.38419 10.6308 5.46528 10.4351 5.60962 10.2907C5.75396 10.1464 5.94972 10.0653 6.15385 10.0653C6.35798 10.0653 6.55374 10.1464 6.69808 10.2907L8.46154 12.0552L13.3019 7.21381C13.3734 7.14229 13.4582 7.08555 13.5516 7.04684C13.645 7.00813 13.7451 6.9882 13.8462 6.9882C13.9472 6.9882 14.0473 7.00813 14.1407 7.04684C14.2341 7.08555 14.3189 7.14229 14.3904 7.21381ZM20 10.0657C20 12.0435 19.4135 13.9769 18.3147 15.6214C17.2159 17.2659 15.6541 18.5476 13.8268 19.3045C11.9996 20.0614 9.98891 20.2594 8.0491 19.8736C6.10929 19.4877 4.32746 18.5353 2.92894 17.1368C1.53041 15.7383 0.578004 13.9564 0.192152 12.0166C-0.1937 10.0768 0.00433284 8.06616 0.761209 6.2389C1.51809 4.41164 2.79981 2.84985 4.4443 1.75104C6.08879 0.652225 8.02219 0.0657349 10 0.0657349C12.6513 0.0685347 15.1932 1.123 17.068 2.99776C18.9427 4.87252 19.9972 7.41443 20 10.0657ZM18.4615 10.0657C18.4615 8.3922 17.9653 6.75625 17.0355 5.36475C16.1057 3.97326 14.7842 2.88873 13.2381 2.24829C11.6919 1.60786 9.99062 1.44029 8.34924 1.76678C6.70786 2.09327 5.20016 2.89916 4.01679 4.08252C2.83343 5.26589 2.02754 6.77359 1.70105 8.41497C1.37456 10.0563 1.54213 11.7577 2.18256 13.3038C2.823 14.85 3.90753 16.1715 5.29902 17.1012C6.69052 18.031 8.32647 18.5273 10 18.5273C12.2434 18.5247 14.3941 17.6324 15.9804 16.0461C17.5667 14.4598 18.459 12.3091 18.4615 10.0657Z" fill="#009F99"/>
</svg>
