<svg width="18" height="18" viewBox="0 0 18 18" fill="none" xmlns="http://www.w3.org/2000/svg">
<path d="M15.6719 5.4563L12.5442 2.32812C12.4402 2.22409 12.3167 2.14158 12.1808 2.08528C12.0449 2.02898 11.8993 2 11.7522 2C11.6051 2 11.4594 2.02898 11.3235 2.08528C11.1876 2.14158 11.0641 2.22409 10.9601 2.32812L2.32831 10.9602C2.22385 11.0638 2.14104 11.1872 2.08468 11.3231C2.02832 11.459 1.99954 11.6047 2.00001 11.7519V14.88C2.00001 15.1771 2.11801 15.4619 2.32805 15.672C2.53809 15.882 2.82297 16 3.12002 16H6.24836C6.39549 16.0005 6.54125 15.9717 6.67717 15.9153C6.81308 15.859 6.93644 15.7762 7.04006 15.6717L15.6719 7.04034C15.7759 6.93634 15.8584 6.81286 15.9147 6.67697C15.971 6.54107 16 6.39541 16 6.24832C16 6.10122 15.971 5.95557 15.9147 5.81967C15.8584 5.68377 15.7759 5.5603 15.6719 5.4563ZM6.24836 14.88H3.12002V11.7519L9.28009 5.59209L12.4084 8.72027L6.24836 14.88ZM13.2001 7.9279L10.0718 4.80042L11.7518 3.12049L14.8802 6.24797L13.2001 7.9279Z" fill="#F3AF5C"/>
</svg>
