<svg width="16" height="16" viewBox="0 0 16 16" fill="none" xmlns="http://www.w3.org/2000/svg">
<path d="M14.6719 4.4563L11.5442 1.32812C11.4402 1.22409 11.3167 1.14158 11.1808 1.08528C11.0449 1.02898 10.8993 1 10.7522 1C10.6051 1 10.4594 1.02898 10.3235 1.08528C10.1876 1.14158 10.0641 1.22409 9.96011 1.32812L1.32831 9.96019C1.22385 10.0638 1.14104 10.1872 1.08468 10.3231C1.02832 10.459 0.999536 10.6047 1.00001 10.7519V13.88C1.00001 14.1771 1.11801 14.4619 1.32805 14.672C1.53809 14.882 1.82297 15 2.12002 15H5.24836C5.39549 15.0005 5.54125 14.9717 5.67717 14.9153C5.81308 14.859 5.93644 14.7762 6.04006 14.6717L14.6719 6.04034C14.7759 5.93634 14.8584 5.81286 14.9147 5.67697C14.971 5.54107 15 5.39541 15 5.24832C15 5.10122 14.971 4.95557 14.9147 4.81967C14.8584 4.68377 14.7759 4.5603 14.6719 4.4563ZM5.24836 13.88H2.12002V10.7519L8.28009 4.59209L11.4084 7.72027L5.24836 13.88ZM12.2001 6.9279L9.0718 3.80042L10.7518 2.12049L13.8802 5.24797L12.2001 6.9279Z" fill="#121212"/>
</svg>
