<svg width="16" height="17" viewBox="0 0 16 17" fill="none" xmlns="http://www.w3.org/2000/svg">
<path d="M14 8.90765V12.4631C14 12.581 13.9548 12.694 13.8745 12.7774C13.7941 12.8607 13.6851 12.9075 13.5714 12.9075H10.1429C10.0293 12.9075 9.92027 12.8607 9.83989 12.7774C9.75952 12.694 9.71437 12.581 9.71437 12.4631C9.71437 12.3452 9.75952 12.2322 9.83989 12.1488C9.92027 12.0655 10.0293 12.0187 10.1429 12.0187H12.537L8.42868 7.75825L6.58908 9.66652C6.54927 9.70784 6.50201 9.74062 6.44998 9.76299C6.39795 9.78535 6.34219 9.79687 6.28587 9.79687C6.22955 9.79687 6.17378 9.78535 6.12175 9.76299C6.06973 9.74062 6.02246 9.70784 5.98266 9.66652L2.12559 5.66664C2.04518 5.58325 2 5.47015 2 5.35221C2 5.23427 2.04518 5.12117 2.12559 5.03777C2.20601 4.95438 2.31508 4.90753 2.4288 4.90753C2.54253 4.90753 2.65159 4.95438 2.73201 5.03777L6.28587 8.72377L8.12547 6.8155C8.16528 6.77418 8.21254 6.7414 8.26457 6.71903C8.31659 6.69666 8.37236 6.68515 8.42868 6.68515C8.485 6.68515 8.54077 6.69666 8.5928 6.71903C8.64482 6.7414 8.69209 6.77418 8.73189 6.8155L13.1429 11.3904V8.90765C13.1429 8.78978 13.188 8.67674 13.2684 8.59339C13.3488 8.51005 13.4578 8.46322 13.5714 8.46322C13.6851 8.46322 13.7941 8.51005 13.8745 8.59339C13.9548 8.67674 14 8.78978 14 8.90765Z" fill="#009F99"/>
</svg>
