<svg width="44" height="44" viewBox="0 0 44 44" fill="none" xmlns="http://www.w3.org/2000/svg">
<path d="M0 22C0 9.84974 9.84974 0 22 0C34.1503 0 44 9.84974 44 22C44 34.1503 34.1503 44 22 44C9.84974 44 0 34.1503 0 22Z" fill="#F3AF5C"/>
<path d="M33.9982 15.3851C33.7628 15.507 33.4887 15.5304 33.236 15.4503C32.9833 15.3701 32.7728 15.1929 32.6507 14.9576C31.6962 13.072 30.2515 11.4782 28.4682 10.3438C28.3571 10.2737 28.2609 10.1824 28.185 10.0752C28.1092 9.96788 28.0552 9.8467 28.0262 9.71856C27.9972 9.59041 27.9937 9.45781 28.0159 9.32831C28.0381 9.19882 28.0856 9.07497 28.1557 8.96384C28.2258 8.85271 28.3171 8.75647 28.4244 8.68062C28.5317 8.60477 28.6529 8.5508 28.781 8.52178C28.9092 8.49276 29.0418 8.48927 29.1713 8.5115C29.3008 8.53373 29.4246 8.58124 29.5357 8.65134C31.614 9.98201 33.3015 11.8408 34.4257 14.0376C34.5476 14.273 34.5711 14.5472 34.4909 14.7998C34.4108 15.0525 34.2335 15.263 33.9982 15.3851ZM10.462 15.4976C10.6452 15.4975 10.8248 15.4471 10.9814 15.3519C11.1379 15.2567 11.2652 15.1203 11.3495 14.9576C12.304 13.072 13.7488 11.4782 15.532 10.3438C15.7564 10.2023 15.9154 9.97736 15.974 9.71856C16.0326 9.45976 15.986 9.18828 15.8445 8.96384C15.7029 8.7394 15.478 8.58039 15.2192 8.52178C14.9604 8.46318 14.6889 8.50978 14.4645 8.65134C12.3862 9.98201 10.6987 11.8408 9.57448 14.0376C9.49553 14.19 9.45713 14.3601 9.46298 14.5317C9.46884 14.7032 9.51874 14.8704 9.60789 15.017C9.69705 15.1637 9.82245 15.2849 9.97203 15.3691C10.1216 15.4533 10.2903 15.4975 10.462 15.4976ZM33.7245 28.4901C33.9016 28.7939 33.9956 29.139 33.9968 29.4907C33.998 29.8424 33.9064 30.1882 33.7314 30.4932C33.5563 30.7982 33.3039 31.0517 32.9996 31.228C32.6953 31.4043 32.3499 31.4973 31.9982 31.4976H26.8982C26.6687 32.6279 26.0555 33.6441 25.1625 34.374C24.2695 35.1039 23.1516 35.5026 21.9982 35.5026C20.8449 35.5026 19.727 35.1039 18.834 34.374C17.941 33.6441 17.3277 32.6279 17.0982 31.4976H11.9982C11.6468 31.4969 11.3017 31.4036 10.9977 31.2271C10.6938 31.0506 10.4418 30.7971 10.267 30.4921C10.0922 30.1872 10.0009 29.8416 10.0022 29.4901C10.0035 29.1386 10.0974 28.7937 10.2745 28.4901C11.4007 26.5463 11.9982 23.7826 11.9982 20.4976C11.9982 17.8454 13.0518 15.3019 14.9272 13.4265C16.8025 11.5512 19.3461 10.4976 21.9982 10.4976C24.6504 10.4976 27.1939 11.5512 29.0693 13.4265C30.9447 15.3019 31.9982 17.8454 31.9982 20.4976C31.9982 23.7813 32.5957 26.5451 33.7245 28.4901ZM24.8257 31.4976H19.1707C19.3779 32.0819 19.761 32.5876 20.2673 32.9453C20.7736 33.3029 21.3783 33.495 21.9982 33.495C22.6181 33.495 23.2228 33.3029 23.7292 32.9453C24.2355 32.5876 24.6186 32.0819 24.8257 31.4976ZM31.9982 29.4976C30.6682 27.2138 29.9982 24.1863 29.9982 20.4976C29.9982 18.3759 29.1554 16.341 27.6551 14.8407C26.1548 13.3404 24.12 12.4976 21.9982 12.4976C19.8765 12.4976 17.8417 13.3404 16.3414 14.8407C14.8411 16.341 13.9982 18.3759 13.9982 20.4976C13.9982 24.1876 13.3257 27.2151 11.9982 29.4976H31.9982Z" fill="white"/>
<path d="M28 7.92C28 3.54591 31.5459 0 35.92 0C40.2941 0 43.84 3.54591 43.84 7.92C43.84 12.2941 40.2941 15.84 35.92 15.84C31.5459 15.84 28 12.2941 28 7.92Z" fill="#DC2626"/>
<path d="M35.6913 11.9199V3.99992L36.2073 4.56392H33.7953V3.51992H36.8793V11.9199H35.6913Z" fill="white"/>
</svg>
